<svg width="39" height="41" viewBox="0 0 39 41" fill="none" xmlns="http://www.w3.org/2000/svg">
<path d="M20.562 0.430162C20.4227 0.293806 20.2571 0.185624 20.0749 0.111809C19.8927 0.0379952 19.6973 0 19.5 0C19.3027 0 19.1073 0.0379952 18.9251 0.111809C18.7429 0.185624 18.5773 0.293806 18.438 0.430162L0.438002 18.0005C0.298797 18.1367 0.188463 18.2984 0.113307 18.4762C0.0381524 18.6541 -0.000349649 18.8447 2.39249e-06 19.0371V39.5358C2.39249e-06 39.9241 0.158038 40.2966 0.439342 40.5711C0.720647 40.8457 1.10218 41 1.5 41H15C15.3978 41 15.7794 40.8457 16.0607 40.5711C16.342 40.2966 16.5 39.9241 16.5 39.5358V27.8223H22.5V39.5358C22.5 39.9241 22.658 40.2966 22.9393 40.5711C23.2206 40.8457 23.6022 41 24 41H37.5C37.8978 41 38.2794 40.8457 38.5607 40.5711C38.842 40.2966 39 39.9241 39 39.5358V19.0371C39.0003 18.8447 38.9618 18.6541 38.8867 18.4762C38.8115 18.2984 38.7012 18.1367 38.562 18.0005L34.5 14.0384V4.39519C34.5 4.00687 34.342 3.63444 34.0607 3.35985C33.7794 3.08526 33.3978 2.931 33 2.931H30C29.6022 2.931 29.2206 3.08526 28.9393 3.35985C28.658 3.63444 28.5 4.00687 28.5 4.39519V8.1816L20.562 0.430162ZM3 38.0716V19.6433L19.5 3.53718L36 19.6433V38.0716H25.5V26.3581C25.5 25.9697 25.342 25.5973 25.0607 25.3227C24.7794 25.0481 24.3978 24.8939 24 24.8939H15C14.6022 24.8939 14.2206 25.0481 13.9393 25.3227C13.658 25.5973 13.5 25.9697 13.5 26.3581V38.0716H3Z" fill="#2467B5"/>
</svg>
