<svg width="516" height="436" viewBox="0 0 516 436" fill="none" xmlns="http://www.w3.org/2000/svg">
<path d="M92.6675 135.632C92.6675 131.721 89.4977 128.537 85.5726 128.537C84.8577 128.537 84.1833 128.645 83.5358 128.834C83.6438 128.119 83.6977 127.391 83.6977 126.663C83.6977 118.367 76.967 111.636 68.6716 111.636C67.7274 111.636 66.7967 111.731 65.9065 111.893C63.6 108.116 59.4455 105.58 54.6976 105.58C47.5083 105.58 41.6678 111.353 41.5599 118.529C41.4924 118.529 41.4115 118.529 41.3441 118.529C34.6673 118.529 29.245 123.951 29.245 130.628C29.245 137.305 34.6673 142.727 41.3441 142.727H85.7749C89.6056 142.619 92.6675 139.49 92.6675 135.646V135.632Z" fill="#F0F0F0"/>
<path d="M454.657 107.621C454.657 103.71 451.487 100.526 447.562 100.526C446.847 100.526 446.173 100.634 445.525 100.823C445.633 100.108 445.687 99.3799 445.687 98.6515C445.687 90.3561 438.956 83.6254 430.661 83.6254C429.717 83.6254 428.786 83.7198 427.896 83.8817C425.589 80.1049 421.435 77.5691 416.687 77.5691C409.498 77.5691 403.657 83.3421 403.549 90.518C403.482 90.518 403.401 90.518 403.333 90.518C396.657 90.518 391.234 95.9403 391.234 102.617C391.234 109.294 396.657 114.716 403.333 114.716H447.764C451.595 114.608 454.657 111.479 454.657 107.635V107.621Z" fill="#F0F0F0"/>
<path d="M297.698 28.6898H323.555C323.488 28.0694 323.447 27.4354 323.447 26.8015C323.447 17.4 331.068 9.77909 340.47 9.77909C340.672 9.77909 340.888 9.80607 341.09 9.80607C343.221 4.08699 348.724 0 355.185 0C363.508 0 370.252 6.7442 370.252 15.0665C370.252 15.0665 370.252 15.0935 370.252 15.107C377.63 15.4577 383.538 21.3387 383.916 28.7033H384.604C388.772 28.7033 392.171 32.1159 392.171 36.2703C392.171 40.4248 388.758 43.8373 384.604 43.8373H297.698C293.53 43.8373 290.131 40.4248 290.131 36.2703C290.131 32.1159 293.53 28.7033 297.698 28.7033V28.6898Z" fill="#F0F0F0"/>
<path d="M85.9616 40.916C90.0082 34.4685 97.157 30.1657 105.318 30.1657C113.478 30.1657 120.87 34.6169 124.876 41.2397C125.928 40.943 127.034 40.7811 128.18 40.7811C134.938 40.7811 140.428 46.2574 140.428 53.0286C140.428 53.0286 140.428 53.0286 140.428 53.0421H146.889C150.247 53.0421 152.999 55.7937 152.999 59.1523C152.999 62.5109 150.247 65.2626 146.889 65.2626H124.606C120.546 71.6291 113.438 75.8779 105.331 75.8779C98.9375 75.8779 93.151 73.2477 89.01 69.0124C88.6189 69.0393 88.2412 69.0663 87.85 69.0663C80.0402 69.0663 73.7007 62.7402 73.7007 54.917C73.7007 47.7411 79.0421 41.8332 85.9751 40.916H85.9616Z" fill="#F0F0F0"/>
<path d="M232.931 97.405C236.978 90.9576 244.127 86.6548 252.287 86.6548C260.448 86.6548 267.839 91.1059 271.845 97.7287C272.898 97.432 274.004 97.2701 275.15 97.2701C281.908 97.2701 287.398 102.746 287.398 109.518C287.398 109.518 287.398 109.518 287.398 109.531H293.859C297.217 109.531 299.969 112.283 299.969 115.641C299.969 119 297.217 121.752 293.859 121.752H271.576C267.516 128.118 260.407 132.367 252.301 132.367C245.907 132.367 240.121 129.737 235.98 125.501C235.589 125.528 235.211 125.555 234.82 125.555C227.01 125.555 220.67 119.229 220.67 111.406C220.67 104.23 226.012 98.3222 232.945 97.405H232.931Z" fill="#F0F0F0"/>
<path d="M515.352 387.608V323.134H509.848V292.42H501.782V185.619H490.128V171.834L465.269 160.234V146.341H461.816V185.619H457.001V292.42H452.172V236.255H439.075V207.322H435.433V292.42H425.478V260.035H418.936V251.766H403.775V223.508H395.48V203.532H385.269V174.41H381.628V203.532H371.43V223.508H363.121V251.766H347.96V260.035H341.419V292.42H333.649V251.766H318.488V164.254H313.673V154.609H281.287V164.254H274.395V227.649H246.838V233.854H236.492V238.669H246.838V263.474H217.892V180.79H211.687V163.215H198.253V100.858H194.462V163.215H184.818V180.79H128.261V175.004H124.822V214.282H119.993V214.97H117.093V254.248H112.277V264.931H102.08V235.985H98.4249V304.897H94.3649V275.951H90.7095V321.083H88.4839V288.698H81.942V280.429H66.7811V252.184H58.4722V232.195H48.275V203.087H44.6331V232.195H34.4224V252.184H26.127V280.429H10.9661V288.698H4.41071V320.395H3.23724V321.083H0V387.608H515.352Z" fill="#E6E6E6"/>
<path d="M159.824 184.648H163.722V188.546H159.824V184.648Z" fill="#F0F0F0"/>
<path d="M159.824 191.203H163.722V195.102H159.824V191.203Z" fill="#F0F0F0"/>
<path d="M159.824 217.384H163.722V221.283H159.824V217.384Z" fill="#F0F0F0"/>
<path d="M159.824 223.926H163.722V227.824H159.824V223.926Z" fill="#F0F0F0"/>
<path d="M159.824 230.482H163.722V234.393H159.824V230.482Z" fill="#F0F0F0"/>
<path d="M159.824 250.121H163.722V254.019H159.824V250.121Z" fill="#F0F0F0"/>
<path d="M159.824 256.663H163.722V260.574H159.824V256.663Z" fill="#F0F0F0"/>
<path d="M166.029 210.842H169.927V214.754H166.029V210.842Z" fill="#F0F0F0"/>
<path d="M166.029 217.384H169.927V221.283H166.029V217.384Z" fill="#F0F0F0"/>
<path d="M166.029 223.926H169.927V227.824H166.029V223.926Z" fill="#F0F0F0"/>
<path d="M166.029 230.482H169.927V234.393H166.029V230.482Z" fill="#F0F0F0"/>
<path d="M166.029 237.023H169.927V240.935H166.029V237.023Z" fill="#F0F0F0"/>
<path d="M166.029 250.121H169.927V254.019H166.029V250.121Z" fill="#F0F0F0"/>
<path d="M166.029 256.663H169.927V260.574H166.029V256.663Z" fill="#F0F0F0"/>
<path d="M172.233 184.648H176.132V188.546H172.233V184.648Z" fill="#F0F0F0"/>
<path d="M172.233 191.203H176.132V195.102H172.233V191.203Z" fill="#F0F0F0"/>
<path d="M172.233 197.745H176.132V201.657H172.233V197.745Z" fill="#F0F0F0"/>
<path d="M172.233 204.287H176.132V208.199H172.233V204.287Z" fill="#F0F0F0"/>
<path d="M172.233 210.842H176.132V214.754H172.233V210.842Z" fill="#F0F0F0"/>
<path d="M172.233 217.384H176.132V221.283H172.233V217.384Z" fill="#F0F0F0"/>
<path d="M172.233 223.926H176.132V227.824H172.233V223.926Z" fill="#F0F0F0"/>
<path d="M172.233 230.482H176.132V234.393H172.233V230.482Z" fill="#F0F0F0"/>
<path d="M172.233 237.023H176.132V240.935H172.233V237.023Z" fill="#F0F0F0"/>
<path d="M172.233 243.565H176.132V247.477H172.233V243.565Z" fill="#F0F0F0"/>
<path d="M172.233 256.663H176.132V260.574H172.233V256.663Z" fill="#F0F0F0"/>
<path d="M178.425 184.648H182.323V188.546H178.425V184.648Z" fill="#F0F0F0"/>
<path d="M178.425 191.203H182.323V195.102H178.425V191.203Z" fill="#F0F0F0"/>
<path d="M178.425 197.745H182.323V201.657H178.425V197.745Z" fill="#F0F0F0"/>
<path d="M178.425 204.287H182.323V208.199H178.425V204.287Z" fill="#F0F0F0"/>
<path d="M178.425 210.842H182.323V214.754H178.425V210.842Z" fill="#F0F0F0"/>
<path d="M178.425 217.384H182.323V221.283H178.425V217.384Z" fill="#F0F0F0"/>
<path d="M178.425 223.926H182.323V227.824H178.425V223.926Z" fill="#F0F0F0"/>
<path d="M178.425 282.844H182.323V286.742H178.425V282.844Z" fill="#F0F0F0"/>
<path d="M184.629 184.648H188.527V188.546H184.629V184.648Z" fill="#F0F0F0"/>
<path d="M184.629 191.203H188.527V195.102H184.629V191.203Z" fill="#F0F0F0"/>
<path d="M184.629 197.745H188.527V201.657H184.629V197.745Z" fill="#F0F0F0"/>
<path d="M184.629 204.287H188.527V208.199H184.629V204.287Z" fill="#F0F0F0"/>
<path d="M184.629 210.842H188.527V214.754H184.629V210.842Z" fill="#F0F0F0"/>
<path d="M184.629 217.384H188.527V221.283H184.629V217.384Z" fill="#F0F0F0"/>
<path d="M184.629 223.926H188.527V227.824H184.629V223.926Z" fill="#F0F0F0"/>
<path d="M184.629 230.482H188.527V234.393H184.629V230.482Z" fill="#F0F0F0"/>
<path d="M184.629 269.746H188.527V273.645H184.629V269.746Z" fill="#F0F0F0"/>
<path d="M184.629 276.302H188.527V280.2H184.629V276.302Z" fill="#F0F0F0"/>
<path d="M184.629 282.844H188.527V286.742H184.629V282.844Z" fill="#F0F0F0"/>
<path d="M184.629 289.385H188.527V293.297H184.629V289.385Z" fill="#F0F0F0"/>
<path d="M184.629 315.58H188.527V319.478H184.629V315.58Z" fill="#F0F0F0"/>
<path d="M190.834 184.648H194.732V188.546H190.834V184.648Z" fill="#F0F0F0"/>
<path d="M190.834 191.203H194.732V195.102H190.834V191.203Z" fill="#F0F0F0"/>
<path d="M190.834 197.745H194.732V201.657H190.834V197.745Z" fill="#F0F0F0"/>
<path d="M190.834 204.287H194.732V208.199H190.834V204.287Z" fill="#F0F0F0"/>
<path d="M190.834 210.842H194.732V214.754H190.834V210.842Z" fill="#F0F0F0"/>
<path d="M190.834 217.384H194.732V221.283H190.834V217.384Z" fill="#F0F0F0"/>
<path d="M190.834 223.926H194.732V227.824H190.834V223.926Z" fill="#F0F0F0"/>
<path d="M190.834 230.482H194.732V234.393H190.834V230.482Z" fill="#F0F0F0"/>
<path d="M190.834 237.023H194.732V240.935H190.834V237.023Z" fill="#F0F0F0"/>
<path d="M190.834 243.565H194.732V247.477H190.834V243.565Z" fill="#F0F0F0"/>
<path d="M190.834 263.204H194.732V267.103H190.834V263.204Z" fill="#F0F0F0"/>
<path d="M190.834 269.746H194.732V273.645H190.834V269.746Z" fill="#F0F0F0"/>
<path d="M190.834 276.302H194.732V280.2H190.834V276.302Z" fill="#F0F0F0"/>
<path d="M190.834 282.844H194.732V286.742H190.834V282.844Z" fill="#F0F0F0"/>
<path d="M190.834 289.385H194.732V293.297H190.834V289.385Z" fill="#F0F0F0"/>
<path d="M190.834 315.58H194.732V319.478H190.834V315.58Z" fill="#F0F0F0"/>
<path d="M197.039 184.648H200.937V188.546H197.039V184.648Z" fill="#F0F0F0"/>
<path d="M197.039 191.203H200.937V195.102H197.039V191.203Z" fill="#F0F0F0"/>
<path d="M197.039 197.745H200.937V201.657H197.039V197.745Z" fill="#F0F0F0"/>
<path d="M197.039 204.287H200.937V208.199H197.039V204.287Z" fill="#F0F0F0"/>
<path d="M197.039 210.842H200.937V214.754H197.039V210.842Z" fill="#F0F0F0"/>
<path d="M197.039 217.384H200.937V221.283H197.039V217.384Z" fill="#F0F0F0"/>
<path d="M197.039 223.926H200.937V227.824H197.039V223.926Z" fill="#F0F0F0"/>
<path d="M197.039 230.482H200.937V234.393H197.039V230.482Z" fill="#F0F0F0"/>
<path d="M197.039 237.023H200.937V240.935H197.039V237.023Z" fill="#F0F0F0"/>
<path d="M197.039 243.565H200.937V247.477H197.039V243.565Z" fill="#F0F0F0"/>
<path d="M197.039 250.121H200.937V254.019H197.039V250.121Z" fill="#F0F0F0"/>
<path d="M197.039 256.663H200.937V260.574H197.039V256.663Z" fill="#F0F0F0"/>
<path d="M197.039 263.204H200.937V267.103H197.039V263.204Z" fill="#F0F0F0"/>
<path d="M197.039 269.746H200.937V273.645H197.039V269.746Z" fill="#F0F0F0"/>
<path d="M197.039 276.302H200.937V280.2H197.039V276.302Z" fill="#F0F0F0"/>
<path d="M197.039 282.844H200.937V286.742H197.039V282.844Z" fill="#F0F0F0"/>
<path d="M197.039 289.385H200.937V293.297H197.039V289.385Z" fill="#F0F0F0"/>
<path d="M197.039 295.941H200.937V299.839H197.039V295.941Z" fill="#F0F0F0"/>
<path d="M203.23 184.648H207.128V188.546H203.23V184.648Z" fill="#F0F0F0"/>
<path d="M203.23 191.203H207.128V195.102H203.23V191.203Z" fill="#F0F0F0"/>
<path d="M203.23 197.745H207.128V201.657H203.23V197.745Z" fill="#F0F0F0"/>
<path d="M203.23 204.287H207.128V208.199H203.23V204.287Z" fill="#F0F0F0"/>
<path d="M203.23 210.842H207.128V214.754H203.23V210.842Z" fill="#F0F0F0"/>
<path d="M203.23 217.384H207.128V221.283H203.23V217.384Z" fill="#F0F0F0"/>
<path d="M203.23 223.926H207.128V227.824H203.23V223.926Z" fill="#F0F0F0"/>
<path d="M203.23 230.482H207.128V234.393H203.23V230.482Z" fill="#F0F0F0"/>
<path d="M203.23 237.023H207.128V240.935H203.23V237.023Z" fill="#F0F0F0"/>
<path d="M203.23 243.565H207.128V247.477H203.23V243.565Z" fill="#F0F0F0"/>
<path d="M203.23 263.204H207.128V267.103H203.23V263.204Z" fill="#F0F0F0"/>
<path d="M203.23 269.746H207.128V273.645H203.23V269.746Z" fill="#F0F0F0"/>
<path d="M203.23 276.302H207.128V280.2H203.23V276.302Z" fill="#F0F0F0"/>
<path d="M203.23 282.844H207.128V286.742H203.23V282.844Z" fill="#F0F0F0"/>
<path d="M209.434 184.648H213.333V188.546H209.434V184.648Z" fill="#F0F0F0"/>
<path d="M209.434 191.203H213.333V195.102H209.434V191.203Z" fill="#F0F0F0"/>
<path d="M209.434 197.745H213.333V201.657H209.434V197.745Z" fill="#F0F0F0"/>
<path d="M209.434 204.287H213.333V208.199H209.434V204.287Z" fill="#F0F0F0"/>
<path d="M209.434 210.842H213.333V214.754H209.434V210.842Z" fill="#F0F0F0"/>
<path d="M209.434 217.384H213.333V221.283H209.434V217.384Z" fill="#F0F0F0"/>
<path d="M209.434 223.926H213.333V227.824H209.434V223.926Z" fill="#F0F0F0"/>
<path d="M209.434 230.482H213.333V234.393H209.434V230.482Z" fill="#F0F0F0"/>
<path d="M209.434 237.023H213.333V240.935H209.434V237.023Z" fill="#F0F0F0"/>
<path d="M209.434 243.565H213.333V247.477H209.434V243.565Z" fill="#F0F0F0"/>
<path d="M209.434 263.204H213.333V267.103H209.434V263.204Z" fill="#F0F0F0"/>
<path d="M209.434 269.746H213.333V273.645H209.434V269.746Z" fill="#F0F0F0"/>
<path d="M209.434 276.302H213.333V280.2H209.434V276.302Z" fill="#F0F0F0"/>
<path d="M279.264 167.653H283.162V171.551H279.264V167.653Z" fill="#F0F0F0"/>
<path d="M279.264 174.208H283.162V178.106H279.264V174.208Z" fill="#F0F0F0"/>
<path d="M279.264 180.75H283.162V184.648H279.264V180.75Z" fill="#F0F0F0"/>
<path d="M279.264 187.292H283.162V191.19H279.264V187.292Z" fill="#F0F0F0"/>
<path d="M279.264 193.847H283.162V197.745H279.264V193.847Z" fill="#F0F0F0"/>
<path d="M279.264 200.389H283.162V204.287H279.264V200.389Z" fill="#F0F0F0"/>
<path d="M279.264 206.931H283.162V210.829H279.264V206.931Z" fill="#F0F0F0"/>
<path d="M279.264 213.473H283.162V217.371H279.264V213.473Z" fill="#F0F0F0"/>
<path d="M279.264 233.112H283.162V237.01H279.264V233.112Z" fill="#F0F0F0"/>
<path d="M279.264 239.667H283.162V243.565H279.264V239.667Z" fill="#F0F0F0"/>
<path d="M285.455 167.653H289.367V171.551H285.455V167.653Z" fill="#F0F0F0"/>
<path d="M285.455 174.208H289.367V178.106H285.455V174.208Z" fill="#F0F0F0"/>
<path d="M285.455 180.75H289.367V184.648H285.455V180.75Z" fill="#F0F0F0"/>
<path d="M285.455 187.292H289.367V191.19H285.455V187.292Z" fill="#F0F0F0"/>
<path d="M285.455 193.847H289.367V197.745H285.455V193.847Z" fill="#F0F0F0"/>
<path d="M285.455 200.389H289.367V204.287H285.455V200.389Z" fill="#F0F0F0"/>
<path d="M285.455 206.931H289.367V210.829H285.455V206.931Z" fill="#F0F0F0"/>
<path d="M285.455 213.473H289.367V217.371H285.455V213.473Z" fill="#F0F0F0"/>
<path d="M285.455 239.667H289.367V243.565H285.455V239.667Z" fill="#F0F0F0"/>
<path d="M291.646 167.653H295.558V171.551H291.646V167.653Z" fill="#F0F0F0"/>
<path d="M291.646 174.208H295.558V178.106H291.646V174.208Z" fill="#F0F0F0"/>
<path d="M291.646 180.75H295.558V184.648H291.646V180.75Z" fill="#F0F0F0"/>
<path d="M291.646 187.292H295.558V191.19H291.646V187.292Z" fill="#F0F0F0"/>
<path d="M291.646 193.847H295.558V197.745H291.646V193.847Z" fill="#F0F0F0"/>
<path d="M291.646 200.389H295.558V204.287H291.646V200.389Z" fill="#F0F0F0"/>
<path d="M291.646 206.931H295.558V210.829H291.646V206.931Z" fill="#F0F0F0"/>
<path d="M291.646 213.473H295.558V217.371H291.646V213.473Z" fill="#F0F0F0"/>
<path d="M297.864 167.653H301.762V171.551H297.864V167.653Z" fill="#F0F0F0"/>
<path d="M297.864 174.208H301.762V178.106H297.864V174.208Z" fill="#F0F0F0"/>
<path d="M297.864 180.75H301.762V184.648H297.864V180.75Z" fill="#F0F0F0"/>
<path d="M297.864 187.292H301.762V191.19H297.864V187.292Z" fill="#F0F0F0"/>
<path d="M297.864 193.847H301.762V197.745H297.864V193.847Z" fill="#F0F0F0"/>
<path d="M297.864 200.389H301.762V204.287H297.864V200.389Z" fill="#F0F0F0"/>
<path d="M297.864 213.473H301.762V217.371H297.864V213.473Z" fill="#F0F0F0"/>
<path d="M297.864 220.028H301.762V223.94H297.864V220.028Z" fill="#F0F0F0"/>
<path d="M297.864 239.667H301.762V243.565H297.864V239.667Z" fill="#F0F0F0"/>
<path d="M297.864 246.209H301.762V250.107H297.864V246.209Z" fill="#F0F0F0"/>
<path d="M297.864 252.751H301.762V256.649H297.864V252.751Z" fill="#F0F0F0"/>
<path d="M297.864 259.306H301.762V263.204H297.864V259.306Z" fill="#F0F0F0"/>
<path d="M297.864 265.848H301.762V269.746H297.864V265.848Z" fill="#F0F0F0"/>
<path d="M297.864 272.39H301.762V276.288H297.864V272.39Z" fill="#F0F0F0"/>
<path d="M297.864 278.945H301.762V282.857H297.864V278.945Z" fill="#F0F0F0"/>
<path d="M304.069 167.653H307.968V171.551H304.069V167.653Z" fill="#F0F0F0"/>
<path d="M304.069 174.208H307.968V178.106H304.069V174.208Z" fill="#F0F0F0"/>
<path d="M304.069 180.75H307.968V184.648H304.069V180.75Z" fill="#F0F0F0"/>
<path d="M304.069 187.292H307.968V191.19H304.069V187.292Z" fill="#F0F0F0"/>
<path d="M304.069 193.847H307.968V197.745H304.069V193.847Z" fill="#F0F0F0"/>
<path d="M304.069 200.389H307.968V204.287H304.069V200.389Z" fill="#F0F0F0"/>
<path d="M304.069 220.028H307.968V223.94H304.069V220.028Z" fill="#F0F0F0"/>
<path d="M304.069 226.57H307.968V230.468H304.069V226.57Z" fill="#F0F0F0"/>
<path d="M304.069 233.112H307.968V237.01H304.069V233.112Z" fill="#F0F0F0"/>
<path d="M304.069 239.667H307.968V243.565H304.069V239.667Z" fill="#F0F0F0"/>
<path d="M304.069 246.209H307.968V250.107H304.069V246.209Z" fill="#F0F0F0"/>
<path d="M304.069 252.751H307.968V256.649H304.069V252.751Z" fill="#F0F0F0"/>
<path d="M304.069 259.306H307.968V263.204H304.069V259.306Z" fill="#F0F0F0"/>
<path d="M304.069 265.848H307.968V269.746H304.069V265.848Z" fill="#F0F0F0"/>
<path d="M304.069 272.39H307.968V276.288H304.069V272.39Z" fill="#F0F0F0"/>
<path d="M304.069 278.945H307.968V282.857H304.069V278.945Z" fill="#F0F0F0"/>
<path d="M304.069 285.487H307.968V289.385H304.069V285.487Z" fill="#F0F0F0"/>
<path d="M304.069 298.585H307.968V302.483H304.069V298.585Z" fill="#F0F0F0"/>
<path d="M310.26 167.653H314.172V171.551H310.26V167.653Z" fill="#F0F0F0"/>
<path d="M310.26 174.208H314.172V178.106H310.26V174.208Z" fill="#F0F0F0"/>
<path d="M310.26 180.75H314.172V184.648H310.26V180.75Z" fill="#F0F0F0"/>
<path d="M310.26 187.292H314.172V191.19H310.26V187.292Z" fill="#F0F0F0"/>
<path d="M310.26 193.847H314.172V197.745H310.26V193.847Z" fill="#F0F0F0"/>
<path d="M310.26 200.389H314.172V204.287H310.26V200.389Z" fill="#F0F0F0"/>
<path d="M310.26 220.028H314.172V223.94H310.26V220.028Z" fill="#F0F0F0"/>
<path d="M310.26 226.57H314.172V230.468H310.26V226.57Z" fill="#F0F0F0"/>
<path d="M310.26 233.112H314.172V237.01H310.26V233.112Z" fill="#F0F0F0"/>
<path d="M310.26 239.667H314.172V243.565H310.26V239.667Z" fill="#F0F0F0"/>
<path d="M310.26 259.306H314.172V263.204H310.26V259.306Z" fill="#F0F0F0"/>
<path d="M310.26 265.848H314.172V269.746H310.26V265.848Z" fill="#F0F0F0"/>
<path d="M310.26 272.39H314.172V276.288H310.26V272.39Z" fill="#F0F0F0"/>
<path d="M310.26 278.945H314.172V282.857H310.26V278.945Z" fill="#F0F0F0"/>
<path d="M310.26 285.487H314.172V289.385H310.26V285.487Z" fill="#F0F0F0"/>
<path d="M310.26 298.585H314.172V302.483H310.26V298.585Z" fill="#F0F0F0"/>
<path d="M310.26 305.126H314.172V309.025H310.26V305.126Z" fill="#F0F0F0"/>
<path d="M366.548 228.526H370.446V232.424H366.548V228.526Z" fill="#F0F0F0"/>
<path d="M366.548 235.068H370.446V238.966H366.548V235.068Z" fill="#F0F0F0"/>
<path d="M366.548 241.61H370.446V245.508H366.548V241.61Z" fill="#F0F0F0"/>
<path d="M366.548 248.165H370.446V252.063H366.548V248.165Z" fill="#F0F0F0"/>
<path d="M366.548 254.707H370.446V258.605H366.548V254.707Z" fill="#F0F0F0"/>
<path d="M366.548 261.249H370.446V265.147H366.548V261.249Z" fill="#F0F0F0"/>
<path d="M366.548 267.804H370.446V271.702H366.548V267.804Z" fill="#F0F0F0"/>
<path d="M366.548 287.443H370.446V291.341H366.548V287.443Z" fill="#F0F0F0"/>
<path d="M366.548 293.985H370.446V297.883H366.548V293.985Z" fill="#F0F0F0"/>
<path d="M366.548 300.527H370.446V304.425H366.548V300.527Z" fill="#F0F0F0"/>
<path d="M372.739 228.526H376.637V232.424H372.739V228.526Z" fill="#F0F0F0"/>
<path d="M372.739 235.068H376.637V238.966H372.739V235.068Z" fill="#F0F0F0"/>
<path d="M372.739 241.61H376.637V245.508H372.739V241.61Z" fill="#F0F0F0"/>
<path d="M372.739 248.165H376.637V252.063H372.739V248.165Z" fill="#F0F0F0"/>
<path d="M372.739 254.707H376.637V258.605H372.739V254.707Z" fill="#F0F0F0"/>
<path d="M372.739 261.249H376.637V265.147H372.739V261.249Z" fill="#F0F0F0"/>
<path d="M372.739 267.804H376.637V271.702H372.739V267.804Z" fill="#F0F0F0"/>
<path d="M378.943 228.526H382.842V232.424H378.943V228.526Z" fill="#F0F0F0"/>
<path d="M378.943 235.068H382.842V238.966H378.943V235.068Z" fill="#F0F0F0"/>
<path d="M378.943 241.61H382.842V245.508H378.943V241.61Z" fill="#F0F0F0"/>
<path d="M378.943 248.165H382.842V252.063H378.943V248.165Z" fill="#F0F0F0"/>
<path d="M378.943 254.707H382.842V258.605H378.943V254.707Z" fill="#F0F0F0"/>
<path d="M378.943 261.249H382.842V265.147H378.943V261.249Z" fill="#F0F0F0"/>
<path d="M378.943 267.804H382.842V271.702H378.943V267.804Z" fill="#F0F0F0"/>
<path d="M385.148 228.526H389.046V232.424H385.148V228.526Z" fill="#F0F0F0"/>
<path d="M385.148 235.068H389.046V238.966H385.148V235.068Z" fill="#F0F0F0"/>
<path d="M385.148 241.61H389.046V245.508H385.148V241.61Z" fill="#F0F0F0"/>
<path d="M385.148 248.165H389.046V252.063H385.148V248.165Z" fill="#F0F0F0"/>
<path d="M385.148 254.707H389.046V258.605H385.148V254.707Z" fill="#F0F0F0"/>
<path d="M385.148 261.249H389.046V265.147H385.148V261.249Z" fill="#F0F0F0"/>
<path d="M385.148 267.804H389.046V271.702H385.148V267.804Z" fill="#F0F0F0"/>
<path d="M385.148 274.346H389.046V278.244H385.148V274.346Z" fill="#F0F0F0"/>
<path d="M385.148 280.888H389.046V284.786H385.148V280.888Z" fill="#F0F0F0"/>
<path d="M385.148 287.443H389.046V291.341H385.148V287.443Z" fill="#F0F0F0"/>
<path d="M385.148 293.985H389.046V297.883H385.148V293.985Z" fill="#F0F0F0"/>
<path d="M391.353 228.526H395.251V232.424H391.353V228.526Z" fill="#F0F0F0"/>
<path d="M391.353 235.068H395.251V238.966H391.353V235.068Z" fill="#F0F0F0"/>
<path d="M391.353 241.61H395.251V245.508H391.353V241.61Z" fill="#F0F0F0"/>
<path d="M391.353 248.165H395.251V252.063H391.353V248.165Z" fill="#F0F0F0"/>
<path d="M391.353 254.707H395.251V258.605H391.353V254.707Z" fill="#F0F0F0"/>
<path d="M391.353 261.249H395.251V265.147H391.353V261.249Z" fill="#F0F0F0"/>
<path d="M391.353 267.804H395.251V271.702H391.353V267.804Z" fill="#F0F0F0"/>
<path d="M391.353 274.346H395.251V278.244H391.353V274.346Z" fill="#F0F0F0"/>
<path d="M391.353 280.888H395.251V284.786H391.353V280.888Z" fill="#F0F0F0"/>
<path d="M391.353 287.443H395.251V291.341H391.353V287.443Z" fill="#F0F0F0"/>
<path d="M391.353 293.985H395.251V297.883H391.353V293.985Z" fill="#F0F0F0"/>
<path d="M391.353 300.527H395.251V304.425H391.353V300.527Z" fill="#F0F0F0"/>
<path d="M391.353 320.166H395.251V324.064H391.353V320.166Z" fill="#F0F0F0"/>
<path d="M391.353 326.708H395.251V330.62H391.353V326.708Z" fill="#F0F0F0"/>
<path d="M397.544 228.526H401.442V232.424H397.544V228.526Z" fill="#F0F0F0"/>
<path d="M397.544 235.068H401.442V238.966H397.544V235.068Z" fill="#F0F0F0"/>
<path d="M397.544 241.61H401.442V245.508H397.544V241.61Z" fill="#F0F0F0"/>
<path d="M397.544 261.249H401.442V265.147H397.544V261.249Z" fill="#F0F0F0"/>
<path d="M397.544 267.804H401.442V271.702H397.544V267.804Z" fill="#F0F0F0"/>
<path d="M397.544 274.346H401.442V278.244H397.544V274.346Z" fill="#F0F0F0"/>
<path d="M397.544 280.888H401.442V284.786H397.544V280.888Z" fill="#F0F0F0"/>
<path d="M397.544 287.443H401.442V291.341H397.544V287.443Z" fill="#F0F0F0"/>
<path d="M397.544 293.985H401.442V297.883H397.544V293.985Z" fill="#F0F0F0"/>
<path d="M397.544 300.527H401.442V304.425H397.544V300.527Z" fill="#F0F0F0"/>
<path d="M397.544 320.166H401.442V324.064H397.544V320.166Z" fill="#F0F0F0"/>
<path d="M397.544 326.708H401.442V330.62H397.544V326.708Z" fill="#F0F0F0"/>
<path d="M397.544 333.263H401.442V337.175H397.544V333.263Z" fill="#F0F0F0"/>
<path d="M462.531 189.248H466.443V193.146H462.531V189.248Z" fill="#F0F0F0"/>
<path d="M462.531 195.789H466.443V199.688H462.531V195.789Z" fill="#F0F0F0"/>
<path d="M462.531 202.345H466.443V206.243H462.531V202.345Z" fill="#F0F0F0"/>
<path d="M462.531 208.887H466.443V212.785H462.531V208.887Z" fill="#F0F0F0"/>
<path d="M462.531 215.429H466.443V219.327H462.531V215.429Z" fill="#F0F0F0"/>
<path d="M462.531 221.984H466.443V225.882H462.531V221.984Z" fill="#F0F0F0"/>
<path d="M462.531 228.526H466.443V232.424H462.531V228.526Z" fill="#F0F0F0"/>
<path d="M462.531 235.068H466.443V238.966H462.531V235.068Z" fill="#F0F0F0"/>
<path d="M462.531 241.61H466.443V245.508H462.531V241.61Z" fill="#F0F0F0"/>
<path d="M462.531 248.165H466.443V252.063H462.531V248.165Z" fill="#F0F0F0"/>
<path d="M462.531 254.707H466.443V258.605H462.531V254.707Z" fill="#F0F0F0"/>
<path d="M462.531 261.249H466.443V265.147H462.531V261.249Z" fill="#F0F0F0"/>
<path d="M462.531 267.804H466.443V271.702H462.531V267.804Z" fill="#F0F0F0"/>
<path d="M462.531 274.346H466.443V278.244H462.531V274.346Z" fill="#F0F0F0"/>
<path d="M462.531 280.888H466.443V284.786H462.531V280.888Z" fill="#F0F0F0"/>
<path d="M462.531 287.443H466.443V291.341H462.531V287.443Z" fill="#F0F0F0"/>
<path d="M462.531 293.985H466.443V297.883H462.531V293.985Z" fill="#F0F0F0"/>
<path d="M462.531 300.527H466.443V304.425H462.531V300.527Z" fill="#F0F0F0"/>
<path d="M462.531 307.082H466.443V310.98H462.531V307.082Z" fill="#F0F0F0"/>
<path d="M462.531 313.624H466.443V317.522H462.531V313.624Z" fill="#F0F0F0"/>
<path d="M462.531 320.166H466.443V324.064H462.531V320.166Z" fill="#F0F0F0"/>
<path d="M462.531 326.708H466.443V330.62H462.531V326.708Z" fill="#F0F0F0"/>
<path d="M462.531 333.263H466.443V337.175H462.531V333.263Z" fill="#F0F0F0"/>
<path d="M468.736 189.248H472.647V193.146H468.736V189.248Z" fill="#F0F0F0"/>
<path d="M468.736 195.789H472.647V199.688H468.736V195.789Z" fill="#F0F0F0"/>
<path d="M468.736 202.345H472.647V206.243H468.736V202.345Z" fill="#F0F0F0"/>
<path d="M468.736 208.887H472.647V212.785H468.736V208.887Z" fill="#F0F0F0"/>
<path d="M468.736 215.429H472.647V219.327H468.736V215.429Z" fill="#F0F0F0"/>
<path d="M468.736 221.984H472.647V225.882H468.736V221.984Z" fill="#F0F0F0"/>
<path d="M468.736 228.526H472.647V232.424H468.736V228.526Z" fill="#F0F0F0"/>
<path d="M468.736 235.068H472.647V238.966H468.736V235.068Z" fill="#F0F0F0"/>
<path d="M468.736 241.61H472.647V245.508H468.736V241.61Z" fill="#F0F0F0"/>
<path d="M468.736 248.165H472.647V252.063H468.736V248.165Z" fill="#F0F0F0"/>
<path d="M468.736 254.707H472.647V258.605H468.736V254.707Z" fill="#F0F0F0"/>
<path d="M468.736 261.249H472.647V265.147H468.736V261.249Z" fill="#F0F0F0"/>
<path d="M468.736 267.804H472.647V271.702H468.736V267.804Z" fill="#F0F0F0"/>
<path d="M468.736 274.346H472.647V278.244H468.736V274.346Z" fill="#F0F0F0"/>
<path d="M468.736 280.888H472.647V284.786H468.736V280.888Z" fill="#F0F0F0"/>
<path d="M468.736 287.443H472.647V291.341H468.736V287.443Z" fill="#F0F0F0"/>
<path d="M468.736 293.985H472.647V297.883H468.736V293.985Z" fill="#F0F0F0"/>
<path d="M468.736 300.527H472.647V304.425H468.736V300.527Z" fill="#F0F0F0"/>
<path d="M468.736 307.082H472.647V310.98H468.736V307.082Z" fill="#F0F0F0"/>
<path d="M474.954 189.248H478.852V193.146H474.954V189.248Z" fill="#F0F0F0"/>
<path d="M474.954 195.789H478.852V199.688H474.954V195.789Z" fill="#F0F0F0"/>
<path d="M474.954 202.345H478.852V206.243H474.954V202.345Z" fill="#F0F0F0"/>
<path d="M474.954 208.887H478.852V212.785H474.954V208.887Z" fill="#F0F0F0"/>
<path d="M474.954 215.429H478.852V219.327H474.954V215.429Z" fill="#F0F0F0"/>
<path d="M474.954 221.984H478.852V225.882H474.954V221.984Z" fill="#F0F0F0"/>
<path d="M474.954 228.526H478.852V232.424H474.954V228.526Z" fill="#F0F0F0"/>
<path d="M474.954 235.068H478.852V238.966H474.954V235.068Z" fill="#F0F0F0"/>
<path d="M474.954 241.61H478.852V245.508H474.954V241.61Z" fill="#F0F0F0"/>
<path d="M474.954 248.165H478.852V252.063H474.954V248.165Z" fill="#F0F0F0"/>
<path d="M474.954 254.707H478.852V258.605H474.954V254.707Z" fill="#F0F0F0"/>
<path d="M474.954 261.249H478.852V265.147H474.954V261.249Z" fill="#F0F0F0"/>
<path d="M474.954 267.804H478.852V271.702H474.954V267.804Z" fill="#F0F0F0"/>
<path d="M474.954 274.346H478.852V278.244H474.954V274.346Z" fill="#F0F0F0"/>
<path d="M474.954 280.888H478.852V284.786H474.954V280.888Z" fill="#F0F0F0"/>
<path d="M474.954 287.443H478.852V291.341H474.954V287.443Z" fill="#F0F0F0"/>
<path d="M474.954 293.985H478.852V297.883H474.954V293.985Z" fill="#F0F0F0"/>
<path d="M474.954 300.527H478.852V304.425H474.954V300.527Z" fill="#F0F0F0"/>
<path d="M474.954 307.082H478.852V310.98H474.954V307.082Z" fill="#F0F0F0"/>
<path d="M481.145 189.248H485.057V193.146H481.145V189.248Z" fill="#F0F0F0"/>
<path d="M481.145 195.789H485.057V199.688H481.145V195.789Z" fill="#F0F0F0"/>
<path d="M481.145 202.345H485.057V206.243H481.145V202.345Z" fill="#F0F0F0"/>
<path d="M481.145 208.887H485.057V212.785H481.145V208.887Z" fill="#F0F0F0"/>
<path d="M481.145 215.429H485.057V219.327H481.145V215.429Z" fill="#F0F0F0"/>
<path d="M481.145 221.984H485.057V225.882H481.145V221.984Z" fill="#F0F0F0"/>
<path d="M481.145 228.526H485.057V232.424H481.145V228.526Z" fill="#F0F0F0"/>
<path d="M481.145 235.068H485.057V238.966H481.145V235.068Z" fill="#F0F0F0"/>
<path d="M481.145 241.61H485.057V245.508H481.145V241.61Z" fill="#F0F0F0"/>
<path d="M481.145 248.165H485.057V252.063H481.145V248.165Z" fill="#F0F0F0"/>
<path d="M481.145 254.707H485.057V258.605H481.145V254.707Z" fill="#F0F0F0"/>
<path d="M481.145 261.249H485.057V265.147H481.145V261.249Z" fill="#F0F0F0"/>
<path d="M481.145 267.804H485.057V271.702H481.145V267.804Z" fill="#F0F0F0"/>
<path d="M481.145 274.346H485.057V278.244H481.145V274.346Z" fill="#F0F0F0"/>
<path d="M481.145 280.888H485.057V284.786H481.145V280.888Z" fill="#F0F0F0"/>
<path d="M487.336 189.248H491.248V193.146H487.336V189.248Z" fill="#F0F0F0"/>
<path d="M487.336 195.789H491.248V199.688H487.336V195.789Z" fill="#F0F0F0"/>
<path d="M487.336 202.345H491.248V206.243H487.336V202.345Z" fill="#F0F0F0"/>
<path d="M487.336 208.887H491.248V212.785H487.336V208.887Z" fill="#F0F0F0"/>
<path d="M487.336 215.429H491.248V219.327H487.336V215.429Z" fill="#F0F0F0"/>
<path d="M487.336 221.984H491.248V225.882H487.336V221.984Z" fill="#F0F0F0"/>
<path d="M487.336 228.526H491.248V232.424H487.336V228.526Z" fill="#F0F0F0"/>
<path d="M487.336 235.068H491.248V238.966H487.336V235.068Z" fill="#F0F0F0"/>
<path d="M487.336 241.61H491.248V245.508H487.336V241.61Z" fill="#F0F0F0"/>
<path d="M487.336 248.165H491.248V252.063H487.336V248.165Z" fill="#F0F0F0"/>
<path d="M487.336 254.707H491.248V258.605H487.336V254.707Z" fill="#F0F0F0"/>
<path d="M487.336 261.249H491.248V265.147H487.336V261.249Z" fill="#F0F0F0"/>
<path d="M487.336 267.804H491.248V271.702H487.336V267.804Z" fill="#F0F0F0"/>
<path d="M493.554 189.248H497.452V193.146H493.554V189.248Z" fill="#F0F0F0"/>
<path d="M493.554 195.789H497.452V199.688H493.554V195.789Z" fill="#F0F0F0"/>
<path d="M493.554 202.345H497.452V206.243H493.554V202.345Z" fill="#F0F0F0"/>
<path d="M493.554 208.887H497.452V212.785H493.554V208.887Z" fill="#F0F0F0"/>
<path d="M493.554 215.429H497.452V219.327H493.554V215.429Z" fill="#F0F0F0"/>
<path d="M493.554 221.984H497.452V225.882H493.554V221.984Z" fill="#F0F0F0"/>
<path d="M493.554 228.526H497.452V232.424H493.554V228.526Z" fill="#F0F0F0"/>
<path d="M493.554 235.068H497.452V238.966H493.554V235.068Z" fill="#F0F0F0"/>
<path d="M493.554 241.61H497.452V245.508H493.554V241.61Z" fill="#F0F0F0"/>
<path d="M493.554 248.165H497.452V252.063H493.554V248.165Z" fill="#F0F0F0"/>
<path d="M493.554 254.707H497.452V258.605H493.554V254.707Z" fill="#F0F0F0"/>
<path d="M493.554 261.249H497.452V265.147H493.554V261.249Z" fill="#F0F0F0"/>
<path d="M37.8618 237.023H41.76V240.935H37.8618V237.023Z" fill="#F0F0F0"/>
<path d="M37.8618 243.565H41.76V247.477H37.8618V243.565Z" fill="#F0F0F0"/>
<path d="M37.8618 250.121H41.76V254.019H37.8618V250.121Z" fill="#F0F0F0"/>
<path d="M37.8618 256.663H41.76V260.574H37.8618V256.663Z" fill="#F0F0F0"/>
<path d="M37.8618 263.204H41.76V267.103H37.8618V263.204Z" fill="#F0F0F0"/>
<path d="M37.8618 269.746H41.76V273.645H37.8618V269.746Z" fill="#F0F0F0"/>
<path d="M37.8618 276.302H41.76V280.2H37.8618V276.302Z" fill="#F0F0F0"/>
<path d="M37.8618 282.844H41.76V286.742H37.8618V282.844Z" fill="#F0F0F0"/>
<path d="M37.8618 289.385H41.76V293.297H37.8618V289.385Z" fill="#F0F0F0"/>
<path d="M37.8618 295.941H41.76V299.839H37.8618V295.941Z" fill="#F0F0F0"/>
<path d="M37.8618 302.483H41.76V306.394H37.8618V302.483Z" fill="#F0F0F0"/>
<path d="M37.8618 309.025H41.76V312.923H37.8618V309.025Z" fill="#F0F0F0"/>
<path d="M37.8618 315.58H41.76V319.478H37.8618V315.58Z" fill="#F0F0F0"/>
<path d="M37.8618 322.122H41.76V326.02H37.8618V322.122Z" fill="#F0F0F0"/>
<path d="M37.8618 328.664H41.76V332.562H37.8618V328.664Z" fill="#F0F0F0"/>
<path d="M37.8618 335.219H41.76V339.117H37.8618V335.219Z" fill="#F0F0F0"/>
<path d="M37.8618 341.761H41.76V345.659H37.8618V341.761Z" fill="#F0F0F0"/>
<path d="M37.8618 348.303H41.76V352.201H37.8618V348.303Z" fill="#F0F0F0"/>
<path d="M37.8618 354.845H41.76V358.743H37.8618V354.845Z" fill="#F0F0F0"/>
<path d="M37.8618 361.4H41.76V365.298H37.8618V361.4Z" fill="#F0F0F0"/>
<path d="M44.0667 237.023H47.9648V240.935H44.0667V237.023Z" fill="#F0F0F0"/>
<path d="M44.0667 243.565H47.9648V247.477H44.0667V243.565Z" fill="#F0F0F0"/>
<path d="M44.0667 250.121H47.9648V254.019H44.0667V250.121Z" fill="#F0F0F0"/>
<path d="M44.0667 256.663H47.9648V260.574H44.0667V256.663Z" fill="#F0F0F0"/>
<path d="M44.0667 263.204H47.9648V267.103H44.0667V263.204Z" fill="#F0F0F0"/>
<path d="M44.0667 269.746H47.9648V273.645H44.0667V269.746Z" fill="#F0F0F0"/>
<path d="M44.0667 276.302H47.9648V280.2H44.0667V276.302Z" fill="#F0F0F0"/>
<path d="M44.0667 282.844H47.9648V286.742H44.0667V282.844Z" fill="#F0F0F0"/>
<path d="M44.0667 289.385H47.9648V293.297H44.0667V289.385Z" fill="#F0F0F0"/>
<path d="M44.0667 295.941H47.9648V299.839H44.0667V295.941Z" fill="#F0F0F0"/>
<path d="M44.0667 302.483H47.9648V306.394H44.0667V302.483Z" fill="#F0F0F0"/>
<path d="M44.0667 309.025H47.9648V312.923H44.0667V309.025Z" fill="#F0F0F0"/>
<path d="M44.0667 315.58H47.9648V319.478H44.0667V315.58Z" fill="#F0F0F0"/>
<path d="M44.0667 322.122H47.9648V326.02H44.0667V322.122Z" fill="#F0F0F0"/>
<path d="M44.0667 328.664H47.9648V332.562H44.0667V328.664Z" fill="#F0F0F0"/>
<path d="M44.0667 335.219H47.9648V339.117H44.0667V335.219Z" fill="#F0F0F0"/>
<path d="M44.0667 341.761H47.9648V345.659H44.0667V341.761Z" fill="#F0F0F0"/>
<path d="M44.0667 348.303H47.9648V352.201H44.0667V348.303Z" fill="#F0F0F0"/>
<path d="M50.2711 237.023H54.1692V240.935H50.2711V237.023Z" fill="#F0F0F0"/>
<path d="M50.2711 243.565H54.1692V247.477H50.2711V243.565Z" fill="#F0F0F0"/>
<path d="M50.2711 250.121H54.1692V254.019H50.2711V250.121Z" fill="#F0F0F0"/>
<path d="M50.2711 256.663H54.1692V260.574H50.2711V256.663Z" fill="#F0F0F0"/>
<path d="M50.2711 263.204H54.1692V267.103H50.2711V263.204Z" fill="#F0F0F0"/>
<path d="M50.2711 269.746H54.1692V273.645H50.2711V269.746Z" fill="#F0F0F0"/>
<path d="M50.2711 276.302H54.1692V280.2H50.2711V276.302Z" fill="#F0F0F0"/>
<path d="M50.2711 282.844H54.1692V286.742H50.2711V282.844Z" fill="#F0F0F0"/>
<path d="M50.2711 289.385H54.1692V293.297H50.2711V289.385Z" fill="#F0F0F0"/>
<path d="M50.2711 295.941H54.1692V299.839H50.2711V295.941Z" fill="#F0F0F0"/>
<path d="M50.2711 302.483H54.1692V306.394H50.2711V302.483Z" fill="#F0F0F0"/>
<path d="M50.2711 309.025H54.1692V312.923H50.2711V309.025Z" fill="#F0F0F0"/>
<path d="M50.2711 315.58H54.1692V319.478H50.2711V315.58Z" fill="#F0F0F0"/>
<path d="M50.2711 322.122H54.1692V326.02H50.2711V322.122Z" fill="#F0F0F0"/>
<path d="M50.2711 328.664H54.1692V332.562H50.2711V328.664Z" fill="#F0F0F0"/>
<path d="M50.2711 335.219H54.1692V339.117H50.2711V335.219Z" fill="#F0F0F0"/>
<path d="M50.2711 341.761H54.1692V345.659H50.2711V341.761Z" fill="#F0F0F0"/>
<path d="M50.2711 348.303H54.1692V352.201H50.2711V348.303Z" fill="#F0F0F0"/>
<path d="M14.6619 284.799H18.5601V288.711H14.6619V284.799Z" fill="#F0F0F0"/>
<path d="M14.6619 291.341H18.5601V295.239H14.6619V291.341Z" fill="#F0F0F0"/>
<path d="M14.6619 297.883H18.5601V301.781H14.6619V297.883Z" fill="#F0F0F0"/>
<path d="M14.6619 304.439H18.5601V308.337H14.6619V304.439Z" fill="#F0F0F0"/>
<path d="M14.6619 310.98H18.5601V314.879H14.6619V310.98Z" fill="#F0F0F0"/>
<path d="M14.6619 317.522H18.5601V321.42H14.6619V317.522Z" fill="#F0F0F0"/>
<path d="M14.6619 324.078H18.5601V327.976H14.6619V324.078Z" fill="#F0F0F0"/>
<path d="M14.6619 330.62H18.5601V334.518H14.6619V330.62Z" fill="#F0F0F0"/>
<path d="M14.6619 337.161H18.5601V341.06H14.6619V337.161Z" fill="#F0F0F0"/>
<path d="M14.6619 343.717H18.5601V347.615H14.6619V343.717Z" fill="#F0F0F0"/>
<path d="M14.6619 350.259H18.5601V354.157H14.6619V350.259Z" fill="#F0F0F0"/>
<path d="M14.6619 356.801H18.5601V360.699H14.6619V356.801Z" fill="#F0F0F0"/>
<path d="M14.6619 363.342H18.5601V367.241H14.6619V363.342Z" fill="#F0F0F0"/>
<path d="M20.8667 284.799H24.7649V288.711H20.8667V284.799Z" fill="#F0F0F0"/>
<path d="M20.8667 291.341H24.7649V295.239H20.8667V291.341Z" fill="#F0F0F0"/>
<path d="M20.8667 297.883H24.7649V301.781H20.8667V297.883Z" fill="#F0F0F0"/>
<path d="M20.8667 304.439H24.7649V308.337H20.8667V304.439Z" fill="#F0F0F0"/>
<path d="M20.8667 310.98H24.7649V314.879H20.8667V310.98Z" fill="#F0F0F0"/>
<path d="M20.8667 317.522H24.7649V321.42H20.8667V317.522Z" fill="#F0F0F0"/>
<path d="M20.8667 324.078H24.7649V327.976H20.8667V324.078Z" fill="#F0F0F0"/>
<path d="M20.8667 330.62H24.7649V334.518H20.8667V330.62Z" fill="#F0F0F0"/>
<path d="M20.8667 337.161H24.7649V341.06H20.8667V337.161Z" fill="#F0F0F0"/>
<path d="M20.8667 343.717H24.7649V347.615H20.8667V343.717Z" fill="#F0F0F0"/>
<path d="M20.8667 350.259H24.7649V354.157H20.8667V350.259Z" fill="#F0F0F0"/>
<path d="M20.8667 356.801H24.7649V360.699H20.8667V356.801Z" fill="#F0F0F0"/>
<path d="M20.8667 363.342H24.7649V367.241H20.8667V363.342Z" fill="#F0F0F0"/>
<path d="M27.0713 284.799H30.9695V288.711H27.0713V284.799Z" fill="#F0F0F0"/>
<path d="M27.0713 291.341H30.9695V295.239H27.0713V291.341Z" fill="#F0F0F0"/>
<path d="M27.0713 297.883H30.9695V301.781H27.0713V297.883Z" fill="#F0F0F0"/>
<path d="M27.0713 304.439H30.9695V308.337H27.0713V304.439Z" fill="#F0F0F0"/>
<path d="M27.0713 310.98H30.9695V314.879H27.0713V310.98Z" fill="#F0F0F0"/>
<path d="M27.0713 317.522H30.9695V321.42H27.0713V317.522Z" fill="#F0F0F0"/>
<path d="M27.0713 324.078H30.9695V327.976H27.0713V324.078Z" fill="#F0F0F0"/>
<path d="M27.0713 330.62H30.9695V334.518H27.0713V330.62Z" fill="#F0F0F0"/>
<path d="M27.0713 337.161H30.9695V341.06H27.0713V337.161Z" fill="#F0F0F0"/>
<path d="M27.0713 343.717H30.9695V347.615H27.0713V343.717Z" fill="#F0F0F0"/>
<path d="M27.0713 350.259H30.9695V354.157H27.0713V350.259Z" fill="#F0F0F0"/>
<path d="M27.0713 356.801H30.9695V360.699H27.0713V356.801Z" fill="#F0F0F0"/>
<path d="M27.0713 363.342H30.9695V367.241H27.0713V363.342Z" fill="#F0F0F0"/>
<path d="M27.0713 369.898H30.9695V373.796H27.0713V369.898Z" fill="#F0F0F0"/>
<path d="M61.5206 286.755H65.4187V290.653H61.5206V286.755Z" fill="#F0F0F0"/>
<path d="M61.5206 293.297H65.4187V297.195H61.5206V293.297Z" fill="#F0F0F0"/>
<path d="M61.5206 299.839H65.4187V303.737H61.5206V299.839Z" fill="#F0F0F0"/>
<path d="M61.5206 306.381H65.4187V310.279H61.5206V306.381Z" fill="#F0F0F0"/>
<path d="M61.5206 312.936H65.4187V316.834H61.5206V312.936Z" fill="#F0F0F0"/>
<path d="M61.5206 319.478H65.4187V323.376H61.5206V319.478Z" fill="#F0F0F0"/>
<path d="M61.5206 326.02H65.4187V329.918H61.5206V326.02Z" fill="#F0F0F0"/>
<path d="M61.5206 332.575H65.4187V336.487H61.5206V332.575Z" fill="#F0F0F0"/>
<path d="M61.5206 339.117H65.4187V343.015H61.5206V339.117Z" fill="#F0F0F0"/>
<path d="M61.5206 345.659H65.4187V349.557H61.5206V345.659Z" fill="#F0F0F0"/>
<path d="M61.5206 365.298H65.4187V369.196H61.5206V365.298Z" fill="#F0F0F0"/>
<path d="M67.7119 286.755H71.6235V290.653H67.7119V286.755Z" fill="#F0F0F0"/>
<path d="M67.7119 293.297H71.6235V297.195H67.7119V293.297Z" fill="#F0F0F0"/>
<path d="M67.7119 299.839H71.6235V303.737H67.7119V299.839Z" fill="#F0F0F0"/>
<path d="M67.7119 306.381H71.6235V310.279H67.7119V306.381Z" fill="#F0F0F0"/>
<path d="M67.7119 312.936H71.6235V316.834H67.7119V312.936Z" fill="#F0F0F0"/>
<path d="M67.7119 319.478H71.6235V323.376H67.7119V319.478Z" fill="#F0F0F0"/>
<path d="M67.7119 326.02H71.6235V329.918H67.7119V326.02Z" fill="#F0F0F0"/>
<path d="M67.7119 332.575H71.6235V336.487H67.7119V332.575Z" fill="#F0F0F0"/>
<path d="M67.7119 339.117H71.6235V343.015H67.7119V339.117Z" fill="#F0F0F0"/>
<path d="M67.7119 358.756H71.6235V362.668H67.7119V358.756Z" fill="#F0F0F0"/>
<path d="M67.7119 365.298H71.6235V369.196H67.7119V365.298Z" fill="#F0F0F0"/>
<path d="M73.9031 286.755H77.8147V290.653H73.9031V286.755Z" fill="#F0F0F0"/>
<path d="M73.9031 293.297H77.8147V297.195H73.9031V293.297Z" fill="#F0F0F0"/>
<path d="M73.9031 299.839H77.8147V303.737H73.9031V299.839Z" fill="#F0F0F0"/>
<path d="M73.9031 306.381H77.8147V310.279H73.9031V306.381Z" fill="#F0F0F0"/>
<path d="M73.9031 312.936H77.8147V316.834H73.9031V312.936Z" fill="#F0F0F0"/>
<path d="M73.9031 319.478H77.8147V323.376H73.9031V319.478Z" fill="#F0F0F0"/>
<path d="M73.9031 326.02H77.8147V329.918H73.9031V326.02Z" fill="#F0F0F0"/>
<path d="M73.9031 332.575H77.8147V336.487H73.9031V332.575Z" fill="#F0F0F0"/>
<path d="M73.9031 352.214H77.8147V356.126H73.9031V352.214Z" fill="#F0F0F0"/>
<path d="M73.9031 358.756H77.8147V362.668H73.9031V358.756Z" fill="#F0F0F0"/>
<path d="M73.9031 365.298H77.8147V369.196H73.9031V365.298Z" fill="#F0F0F0"/>
<path d="M131.579 187.292H135.478V191.19H131.579V187.292Z" fill="#F0F0F0"/>
<path d="M131.579 193.847H135.478V197.745H131.579V193.847Z" fill="#F0F0F0"/>
<path d="M131.579 200.389H135.478V204.287H131.579V200.389Z" fill="#F0F0F0"/>
<path d="M131.579 206.931H135.478V210.829H131.579V206.931Z" fill="#F0F0F0"/>
<path d="M131.579 213.473H135.478V217.371H131.579V213.473Z" fill="#F0F0F0"/>
<path d="M131.579 220.028H135.478V223.94H131.579V220.028Z" fill="#F0F0F0"/>
<path d="M131.579 226.57H135.478V230.468H131.579V226.57Z" fill="#F0F0F0"/>
<path d="M131.579 233.112H135.478V237.01H131.579V233.112Z" fill="#F0F0F0"/>
<path d="M131.579 239.667H135.478V243.565H131.579V239.667Z" fill="#F0F0F0"/>
<path d="M131.579 246.209H135.478V250.107H131.579V246.209Z" fill="#F0F0F0"/>
<path d="M131.579 252.751H135.478V256.649H131.579V252.751Z" fill="#F0F0F0"/>
<path d="M131.579 259.306H135.478V263.204H131.579V259.306Z" fill="#F0F0F0"/>
<path d="M131.579 265.848H135.478V269.746H131.579V265.848Z" fill="#F0F0F0"/>
<path d="M131.579 272.39H135.478V276.288H131.579V272.39Z" fill="#F0F0F0"/>
<path d="M131.579 278.945H135.478V282.857H131.579V278.945Z" fill="#F0F0F0"/>
<path d="M131.579 285.487H135.478V289.385H131.579V285.487Z" fill="#F0F0F0"/>
<path d="M131.579 292.029H135.478V295.927H131.579V292.029Z" fill="#F0F0F0"/>
<path d="M131.579 305.126H135.478V309.025H131.579V305.126Z" fill="#F0F0F0"/>
<path d="M131.579 311.668H135.478V315.567H131.579V311.668Z" fill="#F0F0F0"/>
<path d="M131.579 318.21H135.478V322.108H131.579V318.21Z" fill="#F0F0F0"/>
<path d="M131.579 324.766H135.478V328.664H131.579V324.766Z" fill="#F0F0F0"/>
<path d="M131.579 331.307H135.478V335.206H131.579V331.307Z" fill="#F0F0F0"/>
<path d="M137.771 187.292H141.669V191.19H137.771V187.292Z" fill="#F0F0F0"/>
<path d="M137.771 193.847H141.669V197.745H137.771V193.847Z" fill="#F0F0F0"/>
<path d="M137.771 200.389H141.669V204.287H137.771V200.389Z" fill="#F0F0F0"/>
<path d="M137.771 206.931H141.669V210.829H137.771V206.931Z" fill="#F0F0F0"/>
<path d="M137.771 213.473H141.669V217.371H137.771V213.473Z" fill="#F0F0F0"/>
<path d="M137.771 220.028H141.669V223.94H137.771V220.028Z" fill="#F0F0F0"/>
<path d="M137.771 226.57H141.669V230.468H137.771V226.57Z" fill="#F0F0F0"/>
<path d="M137.771 233.112H141.669V237.01H137.771V233.112Z" fill="#F0F0F0"/>
<path d="M137.771 239.667H141.669V243.565H137.771V239.667Z" fill="#F0F0F0"/>
<path d="M137.771 246.209H141.669V250.107H137.771V246.209Z" fill="#F0F0F0"/>
<path d="M137.771 252.751H141.669V256.649H137.771V252.751Z" fill="#F0F0F0"/>
<path d="M137.771 259.306H141.669V263.204H137.771V259.306Z" fill="#F0F0F0"/>
<path d="M137.771 265.848H141.669V269.746H137.771V265.848Z" fill="#F0F0F0"/>
<path d="M137.771 272.39H141.669V276.288H137.771V272.39Z" fill="#F0F0F0"/>
<path d="M137.771 278.945H141.669V282.857H137.771V278.945Z" fill="#F0F0F0"/>
<path d="M137.771 285.487H141.669V289.385H137.771V285.487Z" fill="#F0F0F0"/>
<path d="M137.771 324.766H141.669V328.664H137.771V324.766Z" fill="#F0F0F0"/>
<path d="M137.771 331.307H141.669V335.206H137.771V331.307Z" fill="#F0F0F0"/>
<path d="M143.975 187.292H147.874V191.19H143.975V187.292Z" fill="#F0F0F0"/>
<path d="M143.975 193.847H147.874V197.745H143.975V193.847Z" fill="#F0F0F0"/>
<path d="M143.975 200.389H147.874V204.287H143.975V200.389Z" fill="#F0F0F0"/>
<path d="M143.975 206.931H147.874V210.829H143.975V206.931Z" fill="#F0F0F0"/>
<path d="M143.975 213.473H147.874V217.371H143.975V213.473Z" fill="#F0F0F0"/>
<path d="M143.975 220.028H147.874V223.94H143.975V220.028Z" fill="#F0F0F0"/>
<path d="M143.975 226.57H147.874V230.468H143.975V226.57Z" fill="#F0F0F0"/>
<path d="M143.975 233.112H147.874V237.01H143.975V233.112Z" fill="#F0F0F0"/>
<path d="M143.975 239.667H147.874V243.565H143.975V239.667Z" fill="#F0F0F0"/>
<path d="M143.975 246.209H147.874V250.107H143.975V246.209Z" fill="#F0F0F0"/>
<path d="M143.975 252.751H147.874V256.649H143.975V252.751Z" fill="#F0F0F0"/>
<path d="M143.975 259.306H147.874V263.204H143.975V259.306Z" fill="#F0F0F0"/>
<path d="M143.975 265.848H147.874V269.746H143.975V265.848Z" fill="#F0F0F0"/>
<path d="M143.975 272.39H147.874V276.288H143.975V272.39Z" fill="#F0F0F0"/>
<path d="M143.975 278.945H147.874V282.857H143.975V278.945Z" fill="#F0F0F0"/>
<path d="M143.975 285.487H147.874V289.385H143.975V285.487Z" fill="#F0F0F0"/>
<path d="M143.975 298.585H147.874V302.483H143.975V298.585Z" fill="#F0F0F0"/>
<path d="M143.975 305.126H147.874V309.025H143.975V305.126Z" fill="#F0F0F0"/>
<path d="M143.975 311.668H147.874V315.567H143.975V311.668Z" fill="#F0F0F0"/>
<path d="M143.975 318.21H147.874V322.108H143.975V318.21Z" fill="#F0F0F0"/>
<path d="M143.975 331.307H147.874V335.206H143.975V331.307Z" fill="#F0F0F0"/>
<path d="M109.054 269.746H112.966V273.645H109.054V269.746Z" fill="#F0F0F0"/>
<path d="M109.054 276.302H112.966V280.2H109.054V276.302Z" fill="#F0F0F0"/>
<path d="M109.054 282.844H112.966V286.742H109.054V282.844Z" fill="#F0F0F0"/>
<path d="M109.054 289.385H112.966V293.297H109.054V289.385Z" fill="#F0F0F0"/>
<path d="M109.054 295.941H112.966V299.839H109.054V295.941Z" fill="#F0F0F0"/>
<path d="M109.054 302.483H112.966V306.394H109.054V302.483Z" fill="#F0F0F0"/>
<path d="M109.054 309.025H112.966V312.923H109.054V309.025Z" fill="#F0F0F0"/>
<path d="M109.054 322.122H112.966V326.02H109.054V322.122Z" fill="#F0F0F0"/>
<path d="M109.054 328.664H112.966V332.562H109.054V328.664Z" fill="#F0F0F0"/>
<path d="M109.054 335.219H112.966V339.117H109.054V335.219Z" fill="#F0F0F0"/>
<path d="M109.054 341.761H112.966V345.659H109.054V341.761Z" fill="#F0F0F0"/>
<path d="M109.054 348.303H112.966V352.201H109.054V348.303Z" fill="#F0F0F0"/>
<path d="M109.054 354.845H112.966V358.743H109.054V354.845Z" fill="#F0F0F0"/>
<path d="M109.054 361.4H112.966V365.298H109.054V361.4Z" fill="#F0F0F0"/>
<path d="M109.054 367.942H112.966V371.84H109.054V367.942Z" fill="#F0F0F0"/>
<path d="M115.272 269.746H119.17V273.645H115.272V269.746Z" fill="#F0F0F0"/>
<path d="M115.272 276.302H119.17V280.2H115.272V276.302Z" fill="#F0F0F0"/>
<path d="M115.272 282.844H119.17V286.742H115.272V282.844Z" fill="#F0F0F0"/>
<path d="M115.272 289.385H119.17V293.297H115.272V289.385Z" fill="#F0F0F0"/>
<path d="M115.272 295.941H119.17V299.839H115.272V295.941Z" fill="#F0F0F0"/>
<path d="M115.272 302.483H119.17V306.394H115.272V302.483Z" fill="#F0F0F0"/>
<path d="M115.272 322.122H119.17V326.02H115.272V322.122Z" fill="#F0F0F0"/>
<path d="M115.272 328.664H119.17V332.562H115.272V328.664Z" fill="#F0F0F0"/>
<path d="M115.272 335.219H119.17V339.117H115.272V335.219Z" fill="#F0F0F0"/>
<path d="M115.272 341.761H119.17V345.659H115.272V341.761Z" fill="#F0F0F0"/>
<path d="M115.272 348.303H119.17V352.201H115.272V348.303Z" fill="#F0F0F0"/>
<path d="M115.272 354.845H119.17V358.743H115.272V354.845Z" fill="#F0F0F0"/>
<path d="M115.272 361.4H119.17V365.298H115.272V361.4Z" fill="#F0F0F0"/>
<path d="M115.272 367.942H119.17V371.84H115.272V367.942Z" fill="#F0F0F0"/>
<path d="M121.449 269.746H125.361V273.645H121.449V269.746Z" fill="#F0F0F0"/>
<path d="M121.449 276.302H125.361V280.2H121.449V276.302Z" fill="#F0F0F0"/>
<path d="M121.449 282.844H125.361V286.742H121.449V282.844Z" fill="#F0F0F0"/>
<path d="M121.449 289.385H125.361V293.297H121.449V289.385Z" fill="#F0F0F0"/>
<path d="M121.449 295.941H125.361V299.839H121.449V295.941Z" fill="#F0F0F0"/>
<path d="M121.449 302.483H125.361V306.394H121.449V302.483Z" fill="#F0F0F0"/>
<path d="M121.449 315.58H125.361V319.478H121.449V315.58Z" fill="#F0F0F0"/>
<path d="M121.449 322.122H125.361V326.02H121.449V322.122Z" fill="#F0F0F0"/>
<path d="M121.449 328.664H125.361V332.562H121.449V328.664Z" fill="#F0F0F0"/>
<path d="M121.449 335.219H125.361V339.117H121.449V335.219Z" fill="#F0F0F0"/>
<path d="M121.449 341.761H125.361V345.659H121.449V341.761Z" fill="#F0F0F0"/>
<path d="M121.449 348.303H125.361V352.201H121.449V348.303Z" fill="#F0F0F0"/>
<path d="M121.449 354.845H125.361V358.743H121.449V354.845Z" fill="#F0F0F0"/>
<path d="M121.449 361.4H125.361V365.298H121.449V361.4Z" fill="#F0F0F0"/>
<path d="M121.449 367.942H125.361V371.84H121.449V367.942Z" fill="#F0F0F0"/>
<path d="M252.152 233.112H256.051V237.01H252.152V233.112Z" fill="#F0F0F0"/>
<path d="M252.152 239.667H256.051V243.565H252.152V239.667Z" fill="#F0F0F0"/>
<path d="M252.152 246.209H256.051V250.107H252.152V246.209Z" fill="#F0F0F0"/>
<path d="M252.152 252.751H256.051V256.649H252.152V252.751Z" fill="#F0F0F0"/>
<path d="M252.152 259.306H256.051V263.204H252.152V259.306Z" fill="#F0F0F0"/>
<path d="M252.152 265.848H256.051V269.746H252.152V265.848Z" fill="#F0F0F0"/>
<path d="M252.152 272.39H256.051V276.288H252.152V272.39Z" fill="#F0F0F0"/>
<path d="M252.152 278.945H256.051V282.857H252.152V278.945Z" fill="#F0F0F0"/>
<path d="M252.152 285.487H256.051V289.385H252.152V285.487Z" fill="#F0F0F0"/>
<path d="M252.152 292.029H256.051V295.927H252.152V292.029Z" fill="#F0F0F0"/>
<path d="M252.152 298.585H256.051V302.483H252.152V298.585Z" fill="#F0F0F0"/>
<path d="M252.152 305.126H256.051V309.025H252.152V305.126Z" fill="#F0F0F0"/>
<path d="M252.152 311.668H256.051V315.567H252.152V311.668Z" fill="#F0F0F0"/>
<path d="M252.152 324.766H256.051V328.664H252.152V324.766Z" fill="#F0F0F0"/>
<path d="M252.152 331.307H256.051V335.206H252.152V331.307Z" fill="#F0F0F0"/>
<path d="M252.152 337.849H256.051V341.747H252.152V337.849Z" fill="#F0F0F0"/>
<path d="M252.152 344.405H256.051V348.303H252.152V344.405Z" fill="#F0F0F0"/>
<path d="M252.152 357.488H256.051V361.4H252.152V357.488Z" fill="#F0F0F0"/>
<path d="M252.152 364.044H256.051V367.942H252.152V364.044Z" fill="#F0F0F0"/>
<path d="M252.152 370.586H256.051V374.484H252.152V370.586Z" fill="#F0F0F0"/>
<path d="M258.357 233.112H262.255V237.01H258.357V233.112Z" fill="#F0F0F0"/>
<path d="M258.357 239.667H262.255V243.565H258.357V239.667Z" fill="#F0F0F0"/>
<path d="M258.357 246.209H262.255V250.107H258.357V246.209Z" fill="#F0F0F0"/>
<path d="M258.357 252.751H262.255V256.649H258.357V252.751Z" fill="#F0F0F0"/>
<path d="M258.357 259.306H262.255V263.204H258.357V259.306Z" fill="#F0F0F0"/>
<path d="M258.357 265.848H262.255V269.746H258.357V265.848Z" fill="#F0F0F0"/>
<path d="M258.357 272.39H262.255V276.288H258.357V272.39Z" fill="#F0F0F0"/>
<path d="M258.357 278.945H262.255V282.857H258.357V278.945Z" fill="#F0F0F0"/>
<path d="M258.357 285.487H262.255V289.385H258.357V285.487Z" fill="#F0F0F0"/>
<path d="M258.357 292.029H262.255V295.927H258.357V292.029Z" fill="#F0F0F0"/>
<path d="M258.357 298.585H262.255V302.483H258.357V298.585Z" fill="#F0F0F0"/>
<path d="M258.357 305.126H262.255V309.025H258.357V305.126Z" fill="#F0F0F0"/>
<path d="M258.357 311.668H262.255V315.567H258.357V311.668Z" fill="#F0F0F0"/>
<path d="M258.357 331.307H262.255V335.206H258.357V331.307Z" fill="#F0F0F0"/>
<path d="M258.357 337.849H262.255V341.747H258.357V337.849Z" fill="#F0F0F0"/>
<path d="M258.357 350.947H262.255V354.845H258.357V350.947Z" fill="#F0F0F0"/>
<path d="M258.357 357.488H262.255V361.4H258.357V357.488Z" fill="#F0F0F0"/>
<path d="M258.357 364.044H262.255V367.942H258.357V364.044Z" fill="#F0F0F0"/>
<path d="M258.357 370.586H262.255V374.484H258.357V370.586Z" fill="#F0F0F0"/>
<path d="M264.562 233.112H268.46V237.01H264.562V233.112Z" fill="#F0F0F0"/>
<path d="M264.562 239.667H268.46V243.565H264.562V239.667Z" fill="#F0F0F0"/>
<path d="M264.562 246.209H268.46V250.107H264.562V246.209Z" fill="#F0F0F0"/>
<path d="M264.562 252.751H268.46V256.649H264.562V252.751Z" fill="#F0F0F0"/>
<path d="M264.562 259.306H268.46V263.204H264.562V259.306Z" fill="#F0F0F0"/>
<path d="M264.562 265.848H268.46V269.746H264.562V265.848Z" fill="#F0F0F0"/>
<path d="M264.562 272.39H268.46V276.288H264.562V272.39Z" fill="#F0F0F0"/>
<path d="M264.562 278.945H268.46V282.857H264.562V278.945Z" fill="#F0F0F0"/>
<path d="M264.562 285.487H268.46V289.385H264.562V285.487Z" fill="#F0F0F0"/>
<path d="M264.562 292.029H268.46V295.927H264.562V292.029Z" fill="#F0F0F0"/>
<path d="M264.562 298.585H268.46V302.483H264.562V298.585Z" fill="#F0F0F0"/>
<path d="M264.562 305.126H268.46V309.025H264.562V305.126Z" fill="#F0F0F0"/>
<path d="M264.562 311.668H268.46V315.567H264.562V311.668Z" fill="#F0F0F0"/>
<path d="M264.562 318.21H268.46V322.108H264.562V318.21Z" fill="#F0F0F0"/>
<path d="M264.562 331.307H268.46V335.206H264.562V331.307Z" fill="#F0F0F0"/>
<path d="M264.562 344.405H268.46V348.303H264.562V344.405Z" fill="#F0F0F0"/>
<path d="M264.562 350.947H268.46V354.845H264.562V350.947Z" fill="#F0F0F0"/>
<path d="M264.562 357.488H268.46V361.4H264.562V357.488Z" fill="#F0F0F0"/>
<path d="M264.562 364.044H268.46V367.942H264.562V364.044Z" fill="#F0F0F0"/>
<path d="M264.562 370.586H268.46V374.484H264.562V370.586Z" fill="#F0F0F0"/>
<path d="M226.889 270.448H230.787V274.346H226.889V270.448Z" fill="#F0F0F0"/>
<path d="M226.889 276.99H230.787V280.888H226.889V276.99Z" fill="#F0F0F0"/>
<path d="M226.889 283.532H230.787V287.43H226.889V283.532Z" fill="#F0F0F0"/>
<path d="M226.889 290.073H230.787V293.972H226.889V290.073Z" fill="#F0F0F0"/>
<path d="M226.889 296.629H230.787V300.527H226.889V296.629Z" fill="#F0F0F0"/>
<path d="M226.889 303.171H230.787V307.069H226.889V303.171Z" fill="#F0F0F0"/>
<path d="M226.889 322.81H230.787V326.708H226.889V322.81Z" fill="#F0F0F0"/>
<path d="M226.889 329.352H230.787V333.25H226.889V329.352Z" fill="#F0F0F0"/>
<path d="M226.889 335.907H230.787V339.805H226.889V335.907Z" fill="#F0F0F0"/>
<path d="M226.889 342.449H230.787V346.361H226.889V342.449Z" fill="#F0F0F0"/>
<path d="M226.889 348.991H230.787V352.889H226.889V348.991Z" fill="#F0F0F0"/>
<path d="M226.889 355.546H230.787V359.444H226.889V355.546Z" fill="#F0F0F0"/>
<path d="M226.889 362.088H230.787V365.986H226.889V362.088Z" fill="#F0F0F0"/>
<path d="M233.093 270.448H236.991V274.346H233.093V270.448Z" fill="#F0F0F0"/>
<path d="M233.093 276.99H236.991V280.888H233.093V276.99Z" fill="#F0F0F0"/>
<path d="M233.093 283.532H236.991V287.43H233.093V283.532Z" fill="#F0F0F0"/>
<path d="M233.093 290.073H236.991V293.972H233.093V290.073Z" fill="#F0F0F0"/>
<path d="M233.093 296.629H236.991V300.527H233.093V296.629Z" fill="#F0F0F0"/>
<path d="M233.093 303.171H236.991V307.069H233.093V303.171Z" fill="#F0F0F0"/>
<path d="M233.093 322.81H236.991V326.708H233.093V322.81Z" fill="#F0F0F0"/>
<path d="M233.093 329.352H236.991V333.25H233.093V329.352Z" fill="#F0F0F0"/>
<path d="M233.093 335.907H236.991V339.805H233.093V335.907Z" fill="#F0F0F0"/>
<path d="M233.093 342.449H236.991V346.361H233.093V342.449Z" fill="#F0F0F0"/>
<path d="M233.093 348.991H236.991V352.889H233.093V348.991Z" fill="#F0F0F0"/>
<path d="M233.093 355.546H236.991V359.444H233.093V355.546Z" fill="#F0F0F0"/>
<path d="M233.093 368.63H236.991V372.528H233.093V368.63Z" fill="#F0F0F0"/>
<path d="M439.115 241.61H443.027V245.508H439.115V241.61Z" fill="#F0F0F0"/>
<path d="M439.115 248.165H443.027V252.063H439.115V248.165Z" fill="#F0F0F0"/>
<path d="M439.115 254.707H443.027V258.605H439.115V254.707Z" fill="#F0F0F0"/>
<path d="M439.115 261.249H443.027V265.147H439.115V261.249Z" fill="#F0F0F0"/>
<path d="M439.115 267.804H443.027V271.702H439.115V267.804Z" fill="#F0F0F0"/>
<path d="M439.115 274.346H443.027V278.244H439.115V274.346Z" fill="#F0F0F0"/>
<path d="M439.115 280.888H443.027V284.786H439.115V280.888Z" fill="#F0F0F0"/>
<path d="M439.115 287.443H443.027V291.341H439.115V287.443Z" fill="#F0F0F0"/>
<path d="M439.115 293.985H443.027V297.883H439.115V293.985Z" fill="#F0F0F0"/>
<path d="M439.115 300.527H443.027V304.425H439.115V300.527Z" fill="#F0F0F0"/>
<path d="M439.115 307.082H443.027V310.98H439.115V307.082Z" fill="#F0F0F0"/>
<path d="M439.115 320.166H443.027V324.064H439.115V320.166Z" fill="#F0F0F0"/>
<path d="M439.115 326.708H443.027V330.62H439.115V326.708Z" fill="#F0F0F0"/>
<path d="M439.115 333.263H443.027V337.175H439.115V333.263Z" fill="#F0F0F0"/>
<path d="M439.115 339.805H443.027V343.703H439.115V339.805Z" fill="#F0F0F0"/>
<path d="M439.115 346.347H443.027V350.245H439.115V346.347Z" fill="#F0F0F0"/>
<path d="M439.115 352.902H443.027V356.801H439.115V352.902Z" fill="#F0F0F0"/>
<path d="M439.115 359.444H443.027V363.342H439.115V359.444Z" fill="#F0F0F0"/>
<path d="M439.115 365.986H443.027V369.884H439.115V365.986Z" fill="#F0F0F0"/>
<path d="M445.32 241.61H449.218V245.508H445.32V241.61Z" fill="#F0F0F0"/>
<path d="M445.32 248.165H449.218V252.063H445.32V248.165Z" fill="#F0F0F0"/>
<path d="M445.32 254.707H449.218V258.605H445.32V254.707Z" fill="#F0F0F0"/>
<path d="M445.32 261.249H449.218V265.147H445.32V261.249Z" fill="#F0F0F0"/>
<path d="M445.32 267.804H449.218V271.702H445.32V267.804Z" fill="#F0F0F0"/>
<path d="M445.32 274.346H449.218V278.244H445.32V274.346Z" fill="#F0F0F0"/>
<path d="M445.32 280.888H449.218V284.786H445.32V280.888Z" fill="#F0F0F0"/>
<path d="M445.32 287.443H449.218V291.341H445.32V287.443Z" fill="#F0F0F0"/>
<path d="M445.32 293.985H449.218V297.883H445.32V293.985Z" fill="#F0F0F0"/>
<path d="M445.32 300.527H449.218V304.425H445.32V300.527Z" fill="#F0F0F0"/>
<path d="M445.32 307.082H449.218V310.98H445.32V307.082Z" fill="#F0F0F0"/>
<path d="M445.32 313.624H449.218V317.522H445.32V313.624Z" fill="#F0F0F0"/>
<path d="M445.32 320.166H449.218V324.064H445.32V320.166Z" fill="#F0F0F0"/>
<path d="M445.32 326.708H449.218V330.62H445.32V326.708Z" fill="#F0F0F0"/>
<path d="M445.32 333.263H449.218V337.175H445.32V333.263Z" fill="#F0F0F0"/>
<path d="M445.32 339.805H449.218V343.703H445.32V339.805Z" fill="#F0F0F0"/>
<path d="M445.32 346.347H449.218V350.245H445.32V346.347Z" fill="#F0F0F0"/>
<path d="M445.32 352.902H449.218V356.801H445.32V352.902Z" fill="#F0F0F0"/>
<path d="M445.32 359.444H449.218V363.342H445.32V359.444Z" fill="#F0F0F0"/>
<path d="M445.32 365.986H449.218V369.884H445.32V365.986Z" fill="#F0F0F0"/>
<path d="M408.577 267.116H412.476V271.014H408.577V267.116Z" fill="#F0F0F0"/>
<path d="M408.577 273.658H412.476V277.556H408.577V273.658Z" fill="#F0F0F0"/>
<path d="M408.577 280.2H412.476V284.098H408.577V280.2Z" fill="#F0F0F0"/>
<path d="M408.577 286.755H412.476V290.653H408.577V286.755Z" fill="#F0F0F0"/>
<path d="M408.577 293.297H412.476V297.195H408.577V293.297Z" fill="#F0F0F0"/>
<path d="M408.577 299.839H412.476V303.737H408.577V299.839Z" fill="#F0F0F0"/>
<path d="M408.577 306.381H412.476V310.279H408.577V306.381Z" fill="#F0F0F0"/>
<path d="M408.577 312.936H412.476V316.834H408.577V312.936Z" fill="#F0F0F0"/>
<path d="M408.577 319.478H412.476V323.376H408.577V319.478Z" fill="#F0F0F0"/>
<path d="M408.577 326.02H412.476V329.918H408.577V326.02Z" fill="#F0F0F0"/>
<path d="M414.782 267.116H418.68V271.014H414.782V267.116Z" fill="#F0F0F0"/>
<path d="M414.782 273.658H418.68V277.556H414.782V273.658Z" fill="#F0F0F0"/>
<path d="M414.782 280.2H418.68V284.098H414.782V280.2Z" fill="#F0F0F0"/>
<path d="M414.782 286.755H418.68V290.653H414.782V286.755Z" fill="#F0F0F0"/>
<path d="M414.782 293.297H418.68V297.195H414.782V293.297Z" fill="#F0F0F0"/>
<path d="M414.782 299.839H418.68V303.737H414.782V299.839Z" fill="#F0F0F0"/>
<path d="M414.782 306.381H418.68V310.279H414.782V306.381Z" fill="#F0F0F0"/>
<path d="M414.782 312.936H418.68V316.834H414.782V312.936Z" fill="#F0F0F0"/>
<path d="M414.782 319.478H418.68V323.376H414.782V319.478Z" fill="#F0F0F0"/>
<path d="M260.38 189.14L258.114 191.945L473.564 363.558L464.379 374.916L463.124 376.48L247.674 204.867L245.408 207.673L241.361 189.099L260.38 189.14Z" fill="#407BFF"/>
<path opacity="0.7" d="M260.38 189.14L258.114 191.945L473.564 363.558L464.379 374.916L463.124 376.48L247.674 204.867L245.408 207.673L241.361 189.099L260.38 189.14Z" fill="white"/>
<path d="M505.275 375.563C505.275 371.651 502.106 368.468 498.18 368.468C497.466 368.468 496.791 368.576 496.144 368.765C496.252 368.05 496.306 367.322 496.306 366.593C496.306 358.298 489.575 351.567 481.28 351.567C480.335 351.567 479.405 351.661 478.514 351.823C476.208 348.047 472.053 345.511 467.306 345.511C460.116 345.511 454.276 351.284 454.168 358.46C454.1 358.46 454.019 358.46 453.952 358.46C447.275 358.46 441.853 363.882 441.853 370.559C441.853 377.236 447.275 382.658 453.952 382.658H498.383C502.214 382.55 505.275 379.421 505.275 375.576V375.563Z" fill="#407BFF"/>
<path opacity="0.8" d="M505.275 375.563C505.275 371.651 502.106 368.468 498.18 368.468C497.466 368.468 496.791 368.576 496.144 368.765C496.252 368.05 496.306 367.322 496.306 366.593C496.306 358.298 489.575 351.567 481.28 351.567C480.335 351.567 479.405 351.661 478.514 351.823C476.208 348.047 472.053 345.511 467.306 345.511C460.116 345.511 454.276 351.284 454.168 358.46C454.1 358.46 454.019 358.46 453.952 358.46C447.275 358.46 441.853 363.882 441.853 370.559C441.853 377.236 447.275 382.658 453.952 382.658H498.383C502.214 382.55 505.275 379.421 505.275 375.576V375.563Z" fill="white"/>
<path d="M53.6296 297.856L48.2478 304.52L148.399 385.409L126.642 412.346L123.648 416.042L23.4965 335.152L18.1281 341.815L8.55135 297.762L53.6296 297.856Z" fill="#407BFF"/>
<path opacity="0.5" d="M53.6296 297.856L48.2478 304.52L148.399 385.409L126.642 412.346L123.648 416.042L23.4965 335.152L18.1281 341.815L8.55135 297.762L53.6296 297.856Z" fill="white"/>
<path d="M107.772 382.496C111.818 376.049 118.967 371.746 127.128 371.746C135.288 371.746 142.68 376.197 146.686 382.82C147.738 382.523 148.844 382.361 149.991 382.361C156.748 382.361 162.238 387.837 162.238 394.609C162.238 394.609 162.238 394.609 162.238 394.622H168.699C172.058 394.622 174.809 397.374 174.809 400.732C174.809 404.091 172.058 406.843 168.699 406.843H146.416C142.356 413.209 135.248 417.458 127.141 417.458C120.748 417.458 114.961 414.828 110.82 410.592C110.429 410.619 110.052 410.646 109.66 410.646C101.851 410.646 95.511 404.32 95.511 396.497C95.511 389.321 100.852 383.413 107.785 382.496H107.772Z" fill="#407BFF"/>
<path opacity="0.8" d="M107.772 382.496C111.818 376.049 118.967 371.746 127.128 371.746C135.288 371.746 142.68 376.197 146.686 382.82C147.738 382.523 148.844 382.361 149.991 382.361C156.748 382.361 162.238 387.837 162.238 394.609C162.238 394.609 162.238 394.609 162.238 394.622H168.699C172.058 394.622 174.809 397.374 174.809 400.732C174.809 404.091 172.058 406.843 168.699 406.843H146.416C142.356 413.209 135.248 417.458 127.141 417.458C120.748 417.458 114.961 414.828 110.82 410.592C110.429 410.619 110.052 410.646 109.66 410.646C101.851 410.646 95.511 404.32 95.511 396.497C95.511 389.321 100.852 383.413 107.785 382.496H107.772Z" fill="white"/>
<path d="M258.128 108.803L260.07 106.752C260.596 106.199 261.365 105.957 262.107 106.092L265.02 106.645C265.964 106.833 266.693 107.602 266.814 108.56L268.311 120.753L263.793 122.48C258.303 120.093 258.586 112.836 258.586 112.836L257.79 111.392C257.332 110.543 257.467 109.491 258.128 108.789V108.803Z" fill="#FFB573"/>
<path d="M312.58 145.343C312.58 145.343 308.264 145.599 305.728 145.545C303.179 145.505 300.63 145.464 298.134 145.316C295.639 145.154 293.17 144.979 290.904 144.668C289.785 144.507 288.692 144.304 287.829 144.075C287.424 143.954 287.033 143.832 286.858 143.765C286.561 143.63 286.885 143.859 286.723 143.765C286.305 143.4 285.482 142.429 284.767 141.526C284.025 140.581 283.283 139.57 282.542 138.545C281.058 136.481 279.588 134.336 278.131 132.178L269.323 119.108L262.444 122.777C263.455 125.299 264.548 127.727 265.654 130.182C266.787 132.61 267.947 135.038 269.148 137.452C270.362 139.867 271.629 142.267 272.992 144.668C273.68 145.869 274.395 147.069 275.19 148.297C276.013 149.551 276.755 150.725 278.185 152.276C278.954 153.126 280.356 154.164 281.26 154.609C282.258 155.149 283.108 155.486 283.958 155.81C285.617 156.403 287.114 156.781 288.598 157.118C291.538 157.779 294.344 158.157 297.136 158.427C302.72 158.98 308.089 159.195 313.686 159.061L312.621 145.343H312.58Z" fill="#407BFF"/>
<path opacity="0.7" d="M262.431 122.777C263.442 125.286 264.535 127.713 265.627 130.168C266.774 132.596 267.934 135.024 269.134 137.452C270.348 139.853 271.603 142.254 272.978 144.655C273.666 145.855 274.381 147.056 275.177 148.283C275.986 149.538 276.742 150.711 278.158 152.262C278.927 153.112 280.33 154.137 281.233 154.582C282.232 155.135 283.081 155.473 283.931 155.796C285.59 156.39 287.087 156.767 288.558 157.091C291.498 157.752 294.304 158.143 297.096 158.413C298.296 158.534 299.483 158.629 300.657 158.723C304.986 159.034 309.249 159.141 313.646 159.047L313.43 156.214L312.58 145.329C312.58 145.329 308.264 145.599 305.728 145.532C303.165 145.491 300.63 145.451 298.121 145.302C295.639 145.154 293.157 144.979 290.891 144.655C289.772 144.507 288.679 144.304 287.816 144.061C287.411 143.954 287.02 143.832 286.845 143.751C286.548 143.616 286.872 143.859 286.71 143.765C286.292 143.4 285.469 142.429 284.754 141.526C284.012 140.581 283.27 139.57 282.542 138.545C281.058 136.481 279.588 134.336 278.118 132.178L269.31 119.108L262.431 122.777Z" fill="white"/>
<path opacity="0.1" d="M300.657 158.723C304.986 159.034 309.249 159.141 313.646 159.047L313.43 156.214L312.378 153.733C312.378 153.733 305.31 153.638 300.657 158.723Z" fill="black"/>
<path d="M384.716 387.311C384.716 387.311 396.923 378.908 396.181 373.27C396.114 372.717 396.438 372.231 397.018 372.137L407.363 370.572C407.849 370.505 408.361 370.721 408.645 371.125L414.755 379.69L412.003 380.689L410.533 379.65L409.845 381.471C394.927 386.866 388.439 389.038 385.148 389.173C384.244 388.013 384.716 387.311 384.716 387.311Z" fill="black"/>
<path d="M315.952 228.634C315.952 228.634 316.573 230.252 317.665 233.058C318.839 236.093 320.565 240.517 322.643 245.778C324.032 249.284 325.57 253.169 327.229 257.256C334.85 276.194 344.696 299.623 351.211 311.453C363.688 334.086 396.195 377.074 396.195 377.074L409.184 372.326C409.184 372.326 385.795 328.057 373.993 305.626C370.392 298.787 366.251 288.725 362.15 277.745C360.194 272.525 358.252 267.089 356.377 261.707C355.527 259.279 354.691 256.851 353.882 254.464C351.737 248.151 349.727 242.068 347.96 236.646C347.745 235.971 347.529 235.297 347.313 234.65C346.598 232.424 345.924 230.32 345.317 228.377C342.781 220.392 341.203 215.132 341.149 214.93H341.135L329.549 221.242L315.952 228.634Z" fill="#263238"/>
<path opacity="0.3" d="M317.665 233.058C318.839 236.093 320.565 240.517 322.643 245.777C324.032 249.284 325.57 253.169 327.229 257.256C337.831 259.387 348.621 260.831 356.377 261.707C355.527 259.279 354.691 256.851 353.882 254.464C351.737 248.151 349.727 242.068 347.96 236.646C347.745 235.971 347.529 235.297 347.313 234.65C346.598 232.424 345.924 230.32 345.317 228.377C337.52 229.443 327.094 231.035 317.665 233.058Z" fill="black"/>
<path d="M357.456 152.519C357.456 152.519 357.456 152.532 357.456 152.546C355.581 158.818 354.489 166.115 353.882 173.304C353.41 178.902 353.234 184.405 353.207 189.342C353.194 194.319 353.342 198.73 353.504 202.102C353.72 206.432 353.976 209.103 353.976 209.103L312.998 211.207C300.697 166.641 312.594 145.329 312.594 145.329C312.594 145.329 317.706 144.817 323.587 145.073C324.342 145.1 325.111 145.154 325.907 145.221C330.924 145.64 338.91 147.218 344.238 148.432C345.33 148.674 346.436 148.958 347.515 149.254C352.87 150.711 357.483 152.519 357.483 152.519H357.456Z" fill="#407BFF"/>
<path opacity="0.7" d="M312.985 211.207L353.963 209.102C353.963 209.102 353.707 206.432 353.491 202.088C353.437 200.821 353.383 199.377 353.329 197.813C353.248 195.29 353.194 192.431 353.194 189.342C353.194 187.845 353.235 186.294 353.275 184.702C353.275 184.446 353.289 184.189 353.289 183.933C353.356 181.411 353.477 178.794 353.653 176.137C353.734 175.193 353.801 174.248 353.882 173.304C353.936 172.562 354.003 171.807 354.071 171.065C354.273 169.177 354.489 167.288 354.759 165.427C354.826 164.914 354.907 164.402 354.988 163.903C355.11 163.053 355.244 162.23 355.393 161.394C355.946 158.319 356.62 155.324 357.443 152.532C357.443 152.532 357.456 152.519 357.47 152.519C357.47 152.519 352.843 150.711 347.489 149.241C346.423 148.958 345.317 148.674 344.224 148.432C338.883 147.231 330.898 145.639 325.894 145.221C325.098 145.167 324.329 145.1 323.56 145.086C317.693 144.817 312.581 145.329 312.581 145.329C312.581 145.329 300.684 166.627 312.985 211.207Z" fill="white"/>
<path d="M287.64 317.86C287.64 317.86 299.348 308.768 298.283 303.184C298.175 302.631 298.471 302.132 299.051 302.011L309.289 299.852C309.761 299.758 310.301 299.947 310.611 300.325L317.207 308.526L314.523 309.672L312.985 308.728L312.391 310.589C297.81 316.834 291.444 319.37 288.18 319.707C287.209 318.601 287.64 317.873 287.64 317.873V317.86Z" fill="black"/>
<path d="M334.364 246.034C333.744 246.061 333.406 246.061 333.406 246.061L284.282 253.21L312.243 299.61L298.242 304.938C298.242 304.938 247.607 250.337 258.91 237.887C268.217 227.649 313.808 221.417 313.808 221.417L312.311 210.735L354.475 202.439C372.496 241.906 340.393 245.67 334.364 246.047V246.034Z" fill="#263238"/>
<path d="M354.974 206.621L355.878 206.445L355.055 203.599L354.26 203.761L354.974 206.621Z" fill="#263238"/>
<path d="M321.807 213.041L339.814 209.548L339.112 206.702L321.173 210.168L321.807 213.041Z" fill="#263238"/>
<path d="M319.783 210.438L312.176 211.922L312.688 214.808L320.39 213.311L319.783 210.438Z" fill="#263238"/>
<path d="M352.87 204.031L340.488 206.432L341.216 209.278L353.558 206.89L352.87 204.031Z" fill="#263238"/>
<g opacity="0.2">
<path d="M354.974 206.621L355.878 206.445L355.055 203.599L354.26 203.761L354.974 206.621Z" fill="white"/>
<path d="M321.807 213.041L339.814 209.548L339.112 206.702L321.173 210.168L321.807 213.041Z" fill="white"/>
<path d="M319.783 210.438L312.176 211.922L312.688 214.808L320.39 213.311L319.783 210.438Z" fill="white"/>
<path d="M352.87 204.031L340.488 206.432L341.216 209.278L353.558 206.89L352.87 204.031Z" fill="white"/>
</g>
<path d="M326.797 209.642L327.202 211.382C327.269 211.665 327.539 211.841 327.822 211.787L332.327 210.991C332.638 210.937 332.827 210.64 332.759 210.33L332.3 208.523C332.233 208.253 331.963 208.077 331.68 208.131L327.215 208.995C326.919 209.049 326.73 209.345 326.797 209.642V209.642Z" stroke="white" stroke-width="0.59" stroke-miterlimit="10"/>
<path d="M330.533 209.79L331.909 209.548" stroke="white" stroke-width="0.59" stroke-linecap="round" stroke-linejoin="round"/>
<path d="M339.962 129.845L329.252 138.72C330.304 143.063 328.483 147.069 326.365 147.811C326.365 147.811 324.801 151.534 327.809 152.168C333.905 153.436 340.865 147.528 340.865 147.528C337.642 144.061 338.802 135.402 339.948 129.858L339.962 129.845Z" fill="#EBB376"/>
<path opacity="0.2" d="M335.605 133.46L329.265 138.707C329.522 139.732 329.711 140.77 329.778 141.782C332.152 141.485 335.43 138.936 335.713 136.467C335.848 135.227 335.807 134.04 335.605 133.46Z" fill="black"/>
<path d="M330.506 112.31C327.917 113.928 324.41 118.798 328.766 119.958C333.123 121.131 334.971 109.531 330.506 112.31Z" fill="#263238"/>
<path d="M343.887 128.941C339.355 134.916 337.008 138.639 331.747 139.718C323.829 141.323 318.083 133.271 320.741 126.041C323.141 119.54 330.142 110.866 337.857 112.512C345.465 114.131 348.405 122.979 343.887 128.954V128.941Z" fill="#FFB573"/>
<path d="M342.551 122.44L347.987 116.086C347.987 116.086 355.177 121.374 351.912 124.571C354.071 129.629 345.519 136.697 338.046 135.24C337.183 130.681 343.833 122.871 343.833 122.871C343.428 122.75 342.997 122.588 342.551 122.426V122.44Z" fill="#263238"/>
<path d="M342.834 135.739C341.27 137.007 339.26 137.439 337.614 137.223C335.146 136.913 334.849 134.444 336.333 132.596C337.668 130.937 340.568 129.103 342.659 130.344C344.723 131.571 344.615 134.282 342.821 135.739H342.834Z" fill="#FFB573"/>
<path d="M333.325 124.287C332.988 124.8 332.448 125.029 332.111 124.8C331.788 124.571 331.788 123.977 332.125 123.478C332.462 122.966 333.001 122.736 333.339 122.966C333.662 123.195 333.662 123.788 333.325 124.287Z" fill="#263238"/>
<path d="M327.62 120.416C327.282 120.929 326.743 121.158 326.406 120.929C326.082 120.699 326.082 120.106 326.419 119.607C326.756 119.094 327.296 118.865 327.633 119.094C327.957 119.324 327.957 119.917 327.62 120.416Z" fill="#263238"/>
<path d="M329.265 121.9C329.265 121.9 326.217 123.923 324.032 124.422C324.383 125.812 326.163 126.459 326.163 126.459L329.279 121.9H329.265Z" fill="#ED893E"/>
<path d="M330.844 129.899C331.059 130.02 331.289 130.155 331.518 130.33C331.599 130.384 331.612 130.506 331.558 130.587C331.504 130.667 331.383 130.681 331.316 130.627C329.144 129.049 327.053 129.831 327.026 129.845C326.932 129.885 326.838 129.845 326.797 129.737C326.757 129.642 326.797 129.534 326.905 129.507C326.986 129.48 328.793 128.806 330.857 129.912L330.844 129.899Z" fill="#263238"/>
<path d="M337.224 122.628C337.102 122.628 336.967 122.574 336.9 122.466C336.037 121.118 334.715 121.077 334.701 121.077C334.499 121.077 334.337 120.915 334.35 120.713C334.364 120.511 334.512 120.362 334.715 120.362C334.782 120.362 336.441 120.403 337.52 122.075C337.628 122.237 337.574 122.466 337.412 122.574C337.358 122.615 337.304 122.628 337.237 122.628H337.224Z" fill="#263238"/>
<path d="M327.552 115.803C327.552 115.803 327.525 115.668 327.552 115.601C327.606 115.412 327.808 115.291 327.997 115.345C329.899 115.871 330.398 117.449 330.425 117.516C330.479 117.705 330.385 117.907 330.196 117.961C330.007 118.015 329.805 117.921 329.751 117.732C329.737 117.665 329.333 116.464 327.808 116.033C327.687 116.006 327.606 115.911 327.566 115.803H327.552Z" fill="#263238"/>
<path d="M343.833 122.898C343.833 122.898 329.589 116.909 328.726 110.084C327.849 103.259 333.865 106.051 333.865 106.051C333.865 106.051 331.086 105.862 331.356 107.886C331.356 107.886 336.171 104.608 340.744 107.427C340.744 107.427 338.599 107.386 337.48 108.978C337.48 108.978 341.836 109.828 346.719 113.443C351.602 117.058 360.37 130.02 343.846 122.898H343.833Z" fill="#263238"/>
<path opacity="0.3" d="M313.808 221.417L337.021 218.747C337.021 218.747 327.836 217.236 313.295 217.776L313.808 221.417Z" fill="black"/>
<path opacity="0.1" d="M353.652 176.137C353.733 175.193 353.801 174.248 353.882 173.304C353.936 172.562 354.003 171.807 354.071 171.065C354.273 169.177 354.489 167.288 354.758 165.427C354.826 164.915 354.907 164.402 354.988 163.903C354.367 163.404 353.679 162.945 352.951 162.541C352.951 162.541 351.629 169.352 353.652 176.137Z" fill="black"/>
<path d="M392.324 209.278L396.357 218.747L387.63 220.905C387.63 220.905 383.88 214.687 387.536 209.939L392.324 209.278Z" fill="#EBB376"/>
<path d="M395.736 226.044L388.844 226.098L387.63 220.905L396.357 218.747L395.736 226.044Z" fill="#EBB376"/>
<path d="M353.059 159.074C352.465 165.009 354.489 167.423 354.489 167.423C354.489 167.423 360.235 171.038 362.73 172.886C364.848 174.478 366.925 176.11 368.894 177.728C369.865 178.551 370.81 179.374 371.673 180.197C372.523 181.006 373.319 181.856 373.831 182.503C374.06 182.76 374.29 183.191 374.519 183.569C374.762 183.96 375.018 184.554 375.288 185.039C375.814 186.132 376.34 187.278 376.839 188.492C377.837 190.907 378.781 193.416 379.672 195.965C381.546 201.036 383.273 206.27 385.067 211.409L393.039 209.521C392.229 203.923 391.137 198.474 389.869 192.943C389.208 190.192 388.466 187.44 387.616 184.648C387.198 183.245 386.712 181.829 386.173 180.372C385.849 179.603 385.593 178.915 385.188 178.093C384.757 177.256 384.366 176.447 383.786 175.584C382.706 173.965 381.654 172.751 380.575 171.578C379.51 170.418 378.444 169.352 377.365 168.314C375.22 166.25 373.022 164.375 370.783 162.568C366.318 158.939 361.84 155.621 357.038 152.424C357.038 152.424 353.585 153.719 353.045 159.101L353.059 159.074Z" fill="#407BFF"/>
<path opacity="0.7" d="M353.059 159.074C352.465 165.009 354.489 167.423 354.489 167.423C354.489 167.423 360.235 171.038 362.73 172.886C364.848 174.478 366.925 176.11 368.894 177.728C369.865 178.551 370.81 179.374 371.673 180.197C372.523 181.006 373.319 181.856 373.831 182.503C374.06 182.76 374.29 183.191 374.519 183.569C374.762 183.96 375.018 184.554 375.288 185.039C375.814 186.132 376.34 187.278 376.839 188.492C377.837 190.907 378.781 193.416 379.672 195.965C381.546 201.036 383.273 206.27 385.067 211.409L393.039 209.521C392.229 203.923 391.137 198.474 389.869 192.943C389.208 190.192 388.466 187.44 387.616 184.648C387.198 183.245 386.712 181.829 386.173 180.372C385.849 179.603 385.593 178.915 385.188 178.093C384.757 177.256 384.366 176.447 383.786 175.584C382.706 173.965 381.654 172.751 380.575 171.578C379.51 170.418 378.444 169.352 377.365 168.314C375.22 166.25 373.022 164.375 370.783 162.568C366.318 158.939 361.84 155.621 357.038 152.424C357.038 152.424 353.585 153.719 353.045 159.101L353.059 159.074Z" fill="white"/>
<path d="M334.944 151.116L331.949 155.823C331.949 155.823 342.403 168.502 362.42 172.684L363.755 176.757L359.506 177.877C359.506 177.877 337.898 172.279 329.265 156.066L324.814 151.102L330.061 149.335L334.957 151.116H334.944Z" fill="#407BFF"/>
<path d="M344.642 148.27L339.76 144.007L330.048 149.335L328.928 143.508L323.803 146.462L322.333 153.989L329.495 150.9L335.888 156.606L344.642 148.27Z" fill="#407BFF"/>
<path opacity="0.6" d="M344.642 148.27L339.76 144.007L330.048 149.335L328.928 143.508L323.803 146.462L322.333 153.989L329.495 150.9L335.888 156.606L344.642 148.27Z" fill="white"/>
<path d="M210.85 63.9134C210.85 63.9134 219.915 75.1627 229.127 74.232C238.326 73.3013 243.034 77.0376 243.034 77.0376L243.938 81.5292L239.001 80.8683C239.001 80.8683 239.001 77.3074 229.397 77.712C219.793 78.1167 212.59 69.8483 209.785 66.112L210.85 63.9269V63.9134Z" fill="#407BFF"/>
<path d="M145.702 45.2182L145.891 44.328C145.985 43.9773 145.931 43.9368 146.268 43.0601C146.794 41.6978 147.685 40.5647 148.467 39.8633C150.086 38.4066 151.434 37.894 152.595 37.4354C154.901 36.6126 156.735 36.3563 158.556 36.1405C160.364 35.9382 162.063 35.8438 163.749 35.8033C167.108 35.7089 170.345 35.8708 173.555 36.0731C179.989 36.5047 186.181 37.2601 192.534 38.3526L190.214 51.6387C184.4 50.708 178.33 49.8582 172.463 49.2513C169.522 48.9545 166.582 48.7657 163.776 48.6847C162.374 48.6443 160.998 48.6578 159.716 48.7387C158.826 48.7927 157.936 48.8871 157.275 49.0085C157.235 49.4671 157.221 49.9661 157.235 50.4922C157.315 52.7852 157.895 55.4694 158.678 58.1401C160.256 63.5085 162.751 69.0927 165.314 74.3127L158.907 78.5751C154.82 73.409 151.448 68.0271 148.669 61.8494C147.334 58.7336 146.161 55.4424 145.621 51.5848C145.365 49.6559 145.27 47.5382 145.688 45.2047L145.702 45.2182Z" fill="#407BFF"/>
<path opacity="0.7" d="M145.634 51.585C146.066 54.7682 146.956 57.5738 147.995 60.2041C148.211 60.7571 148.44 61.3101 148.669 61.8496C151.461 68.0273 154.834 73.3957 158.921 78.5618L165.314 74.2994C162.751 69.0794 160.269 63.5087 158.678 58.1268C158.138 56.2789 157.693 54.4175 157.45 52.691C157.329 51.9222 157.261 51.1803 157.235 50.4789C157.221 49.9529 157.235 49.4538 157.275 48.9952C157.936 48.8738 158.826 48.7794 159.716 48.7254C160.998 48.6445 162.374 48.6445 163.776 48.6715C163.884 48.6715 163.979 48.685 164.087 48.685C166.811 48.7794 169.63 48.9682 172.476 49.2515C178.169 49.845 184.022 50.6543 189.674 51.558C189.863 51.585 190.038 51.6119 190.214 51.6389L192.534 38.3394C186.167 37.2468 179.989 36.4914 173.555 36.0598C170.345 35.8575 167.108 35.6956 163.749 35.79C162.063 35.8305 160.364 35.9249 158.556 36.1273C156.735 36.3566 154.901 36.6128 152.595 37.4221C151.434 37.8807 150.099 38.3933 148.467 39.8501C147.685 40.5515 146.794 41.6845 146.268 43.0468C145.945 43.9236 145.985 43.964 145.891 44.3147L145.702 45.2049C145.284 47.5384 145.378 49.6426 145.634 51.585Z" fill="white"/>
<path opacity="0.1" d="M164.086 48.685C166.811 48.7794 169.63 48.9682 172.476 49.2515C178.168 49.845 184.022 50.6543 189.674 51.558C187.61 46.4864 185.492 41.3608 185.492 41.3608C185.492 41.3608 176.051 42.2645 164.086 48.685Z" fill="black"/>
<path opacity="0.1" d="M147.995 60.2041C148.211 60.7571 148.44 61.3101 148.669 61.8496C151.461 68.0273 154.833 73.3957 158.92 78.5618L165.314 74.2994C162.751 69.0794 160.269 63.5087 158.678 58.1268C158.138 56.2789 157.693 54.4175 157.45 52.691C154.334 54.7817 151.151 57.2636 147.995 60.2041Z" fill="black"/>
<path d="M234.199 47.8891C233.835 48.3612 233.781 48.9277 234.078 49.1705C234.388 49.4133 234.927 49.2245 235.292 48.7659C235.656 48.2938 235.71 47.7273 235.413 47.4845C235.103 47.2417 234.563 47.4305 234.199 47.8891Z" fill="#263238"/>
<path d="M233.727 48.8873C233.727 48.8873 232.662 52.4213 232.81 54.6334C231.38 54.7548 230.247 53.298 230.247 53.298L233.727 48.8873Z" fill="#DE5753"/>
<path d="M234.536 43.9505C234.536 43.9505 234.455 43.8021 234.455 43.7077C234.455 43.5189 234.631 43.3705 234.819 43.3705C236.748 43.4514 237.585 44.8273 237.611 44.8947C237.706 45.0566 237.652 45.2724 237.49 45.3668C237.328 45.4612 237.112 45.4073 237.018 45.2454C237.018 45.2454 236.33 44.1394 234.792 44.0584C234.698 44.0584 234.604 44.0045 234.536 43.937V43.9505Z" fill="#263238"/>
<path d="M220.765 40.6728C216.313 43.8831 207.775 48.9682 202.933 47.0394C202.933 47.0394 198.576 50.6678 202.758 59.7589C207.357 69.7673 209.92 62.2543 209.92 62.2543C208.719 56.198 212.833 54.4715 217.069 53.6757L220.751 40.6594L220.765 40.6728Z" fill="#E4897B"/>
<path d="M219.416 34.6031C215.248 40.6054 212.497 43.9101 213.063 49.1301C213.926 56.9938 223.058 59.9478 228.939 55.3078C234.24 51.1399 240.175 42.0082 236.358 35.3045C232.608 28.6951 223.57 28.5872 219.403 34.5896L219.416 34.6031Z" fill="#E4897B"/>
<path d="M212.712 44.517C213.332 47.9161 224.798 52.5696 229.991 45.2319C229.991 45.2319 236.519 45.178 240.431 41.2528C244.356 37.3142 243.506 33.0519 239.999 30.7319C236.897 28.6816 228.885 13.6286 219.551 24.3788C209.421 23.9607 211.916 40.2682 212.699 44.517H212.712Z" fill="#263238"/>
<path d="M232.068 29.1133C232.068 29.1133 238.084 28.8166 241.55 31.5817C245.017 34.3333 244.046 42.7905 242.71 44.3957C241.375 46.0008 239.959 45.9873 239.959 45.9873C239.959 45.9873 242.009 44.9217 242.009 43.3705C242.009 43.3705 241.119 45.4612 237.032 45.9873C237.032 45.9873 238.192 45.0566 238.016 43.8696C238.016 43.8696 235.804 46.7426 230.679 43.8696C225.553 40.9966 232.081 29.1133 232.081 29.1133H232.068Z" fill="#263238"/>
<path d="M226.956 43.9775C225.85 45.5422 225.418 47.498 225.513 49.0896C225.661 51.4771 227.657 51.6659 229.222 50.1552C230.638 48.8064 232.257 45.9333 231.34 43.9371C230.436 41.9812 228.21 42.1836 226.956 43.9775Z" fill="#E4897B"/>
<path d="M214.978 63.9134C214.978 63.9134 216.098 50.3305 207.236 42.7096L196.674 43.6808C196.674 43.6808 202.758 58.5315 214.978 63.9134Z" fill="#407BFF"/>
<path opacity="0.6" d="M214.978 63.9134C214.978 63.9134 216.098 50.3305 207.236 42.7096L196.674 43.6808C196.674 43.6808 202.758 58.5315 214.978 63.9134Z" fill="white"/>
<path d="M184.535 94.4511C184.535 94.4511 200.505 78.7776 218.161 67.798C218.161 67.798 206.399 40.1873 191.508 37.7324C191.508 37.7324 153.026 49.3594 141.857 80.8548L184.535 94.4511Z" fill="#407BFF"/>
<path d="M182.512 190.097L189.391 193.024L196.85 177.351L189.957 174.437L182.512 190.097Z" fill="#E4897B"/>
<path d="M141.858 80.8548L145.918 123.977C148.157 125.636 151.704 126.918 156.007 127.916C164.424 129.872 175.646 130.762 185.344 131.288C196.229 131.881 205.172 131.989 205.982 132.623C207.87 134.094 183.901 183.609 183.901 183.609L195.339 185.039C195.339 185.039 225.405 143.792 229.303 129.467C230.733 124.18 232.176 117.557 222.464 111.366C213.913 105.916 182.08 101.829 182.08 101.829L184.535 94.4781L141.858 80.8818V80.8548Z" fill="#263238"/>
<path opacity="0.2" d="M156.007 127.916C164.424 129.872 175.646 130.762 185.344 131.288C186.653 115.372 178.654 100.116 178.654 100.116L167.27 97.1893L156.02 127.916H156.007Z" fill="black"/>
<path d="M82.1714 183.744L80.944 191.136L97.9259 194.697L99.1533 187.305L82.1714 183.744Z" fill="#E4897B"/>
<path d="M80.5931 191.406C80.5931 191.406 80.728 191.338 80.7954 191.365C80.8629 191.392 80.9033 191.46 80.9033 191.541C80.9033 191.662 80.7954 194.683 79.8512 195.56C79.6624 195.736 79.4466 195.83 79.2038 195.817C78.7856 195.803 78.6103 195.601 78.5428 195.425C78.3405 194.94 78.7182 194.077 79.2173 193.254C79.6894 192.498 80.2694 191.77 80.6066 191.406H80.5931ZM80.5121 192.04C79.6084 193.119 78.6373 194.737 78.8666 195.29C78.8935 195.358 78.961 195.452 79.2173 195.466C79.3522 195.466 79.487 195.412 79.6084 195.304C79.6894 195.237 79.7568 195.142 79.8243 195.034C80.2829 194.292 80.4582 192.822 80.5121 192.04Z" fill="#407BFF"/>
<path d="M80.6472 191.365C80.6472 191.365 80.7686 191.352 80.8225 191.392C80.89 191.446 82.4951 192.674 82.6704 193.888C82.7244 194.265 82.63 194.589 82.4141 194.886C82.1174 195.277 81.8341 195.263 81.6453 195.183C80.8495 194.859 80.4179 192.485 80.5393 191.5C80.5393 191.473 80.5393 191.446 80.5662 191.433C80.5797 191.406 80.6202 191.379 80.6472 191.365ZM82.3197 193.942C82.2118 193.146 81.3216 192.283 80.8765 191.891C80.8765 192.97 81.3081 194.67 81.7802 194.872C81.8206 194.886 81.9421 194.94 82.1309 194.683C82.1579 194.656 82.1714 194.63 82.1849 194.589C82.3063 194.4 82.3467 194.184 82.3062 193.942H82.3197Z" fill="#407BFF"/>
<path d="M81.8747 191.298L86.164 184.338C86.3258 184.082 86.2854 183.744 86.0561 183.529L81.1733 178.781C80.6607 178.295 79.8379 178.389 79.4737 178.996C77.9765 181.532 75.8858 185.255 73.9435 188.411C71.6774 192.107 69.5058 195.169 66.8486 199.485C65.2434 202.102 67.4286 204.463 68.3458 203.505C72.5137 199.189 75.1305 195.196 80.4449 192.525C81.0249 192.229 81.5509 191.851 81.8882 191.298H81.8747Z" fill="#263238"/>
<path d="M141.857 80.8548C141.857 80.8548 128.153 116.1 151.272 129.777C151.272 129.777 151.569 170.512 145.715 175.274C138.593 181.087 86.4875 184.041 86.4875 184.041L86.9462 196.977C86.9462 196.977 142.734 201.549 159.622 195.479C179.396 188.384 183.806 95.0581 183.806 95.0581L141.844 80.8413L141.857 80.8548Z" fill="#263238"/>
<path opacity="0.2" d="M157.706 102.49L149.384 99.9679C149.384 99.9679 148.237 107.13 148.251 110.974L152.109 114.293L155.764 113.133C155.764 113.133 156.762 105.471 157.706 102.504V102.49Z" fill="black"/>
<path d="M181.783 94.4916L180.704 97.9177L183.793 98.8619L184.872 95.4763L181.783 94.4916Z" fill="#263238"/>
<path d="M167.58 89.9325L166.42 93.48L179.166 97.4321L180.299 94.006L167.58 89.9325Z" fill="#263238"/>
<path d="M151.704 84.8339L150.544 88.5567L164.801 92.9809L165.934 89.4065L151.704 84.8339Z" fill="#263238"/>
<path d="M140.104 85.3195L148.885 88.0441H148.898L150.072 84.3079L141.358 81.5158L140.104 85.3195Z" fill="#263238"/>
<g opacity="0.2">
<path d="M181.783 94.4916L180.704 97.9177L183.793 98.8619L184.872 95.4763L181.783 94.4916Z" fill="white"/>
<path d="M167.58 89.9325L166.42 93.48L179.166 97.4321L180.299 94.006L167.58 89.9325Z" fill="white"/>
<path d="M151.704 84.8339L150.544 88.5567L164.801 92.9809L165.934 89.4065L151.704 84.8339Z" fill="white"/>
<path d="M140.104 85.3195L148.885 88.0441H148.898L150.072 84.3079L141.358 81.5158L140.104 85.3195Z" fill="white"/>
</g>
<path d="M191.508 190.839C191.441 190.826 191.387 190.758 191.374 190.691C191.374 190.623 191.401 190.543 191.468 190.516C191.576 190.448 194.233 189.032 195.474 189.396C195.73 189.477 195.919 189.612 196.027 189.828C196.229 190.205 196.135 190.448 196.027 190.596C195.703 191.015 194.773 191.136 193.815 191.109C192.925 191.082 191.994 190.947 191.522 190.839H191.508ZM192.088 190.596C193.478 190.826 195.366 190.866 195.73 190.381C195.771 190.313 195.825 190.205 195.703 189.99C195.636 189.868 195.528 189.787 195.366 189.733C195.258 189.706 195.15 189.693 195.029 189.679C194.152 189.652 192.803 190.246 192.102 190.583L192.088 190.596Z" fill="#407BFF"/>
<path d="M191.441 190.799C191.441 190.799 191.36 190.704 191.373 190.637C191.373 190.556 191.63 188.546 192.601 187.777C192.897 187.548 193.235 187.454 193.585 187.494C194.071 187.562 194.206 187.804 194.233 188.007C194.354 188.856 192.52 190.435 191.603 190.812C191.576 190.812 191.549 190.826 191.535 190.826C191.495 190.826 191.468 190.826 191.427 190.785L191.441 190.799ZM192.817 188.061C192.183 188.56 191.886 189.76 191.778 190.34C192.709 189.814 193.963 188.56 193.882 188.061C193.882 188.02 193.855 187.899 193.545 187.858C193.504 187.858 193.477 187.858 193.437 187.858C193.208 187.858 193.005 187.926 192.817 188.074V188.061Z" fill="#407BFF"/>
<path d="M190.78 189.774L182.606 189.585C182.296 189.585 182.026 189.787 181.958 190.084L180.326 196.707C180.151 197.395 180.664 198.056 181.365 198.069C184.319 198.083 188.581 198.015 192.277 198.11C196.607 198.217 200.343 198.541 205.428 198.663C208.504 198.73 209.421 195.655 208.153 195.344C202.326 193.928 197.551 193.672 192.574 190.435C192.034 190.084 191.427 189.828 190.78 189.814V189.774Z" fill="#263238"/>
<path opacity="0.7" d="M141.857 80.8548L184.535 94.4511C184.535 94.4511 192.061 87.0729 202.488 78.8855C204.471 77.3343 206.548 75.7562 208.706 74.1915C211.741 71.9794 214.924 69.8078 218.161 67.798C218.161 67.798 206.399 40.1873 191.508 37.7324C191.508 37.7324 153.026 49.3459 141.857 80.8548Z" fill="white"/>
<path opacity="0.1" d="M202.488 78.8855C204.471 77.3343 206.548 75.7562 208.706 74.1916L207.87 71.6692C207.87 71.6692 204.282 74.6906 202.488 78.8855Z" fill="black"/>
<path d="M264.143 107.049L267.084 107.751C267.812 107.926 268.379 108.52 268.5 109.275L269.161 113.375C269.296 114.239 268.824 115.088 268.014 115.412L265.87 116.275C265.87 116.275 259.665 120.754 254.418 117.867L256.684 111.865L261.122 107.845C261.945 107.103 263.078 106.807 264.157 107.063L264.143 107.049Z" fill="#E4897B"/>
<path d="M210.581 68.8906C206.804 71.1566 206.481 75.8236 206.481 75.8236C206.481 75.8236 209.448 83.8627 211.161 87.8688C212.334 90.5799 213.535 93.3046 214.951 96.0158C216.408 98.7539 217.811 101.425 220.198 104.392L220.657 104.945L221.21 105.539C221.547 105.916 222.033 106.361 222.518 106.78C222.721 106.968 223.098 107.238 223.408 107.454C223.719 107.67 224.137 107.953 224.272 107.993L225.418 108.587C226.902 109.329 228.291 109.922 229.694 110.489C232.459 111.622 235.211 112.607 237.962 113.564C243.479 115.412 248.969 117.098 254.607 118.514L257.278 111.298C252.22 108.708 247.067 106.253 242.036 103.731C239.514 102.477 237.005 101.222 234.604 99.9544C233.417 99.3204 232.23 98.6595 231.218 98.039L230.49 97.5804C230.288 97.4725 230.449 97.5265 230.463 97.5265C230.49 97.5265 230.557 97.6074 230.517 97.54C230.476 97.4725 230.436 97.4455 230.301 97.2702L230.139 97.0679L229.95 96.7846C228.858 95.193 227.617 92.7651 226.551 90.3911C225.486 87.9632 224.407 85.4409 223.422 82.8646C221.466 77.739 219.578 72.3841 217.824 67.2045C217.824 67.2045 214.587 66.4897 210.594 68.8906H210.581Z" fill="#407BFF"/>
<path opacity="0.7" d="M210.581 68.8906C206.804 71.1566 206.481 75.8236 206.481 75.8236C206.481 75.8236 209.448 83.8627 211.161 87.8688C212.334 90.5799 213.535 93.3046 214.951 96.0158C216.408 98.7539 217.811 101.425 220.198 104.392L220.657 104.945L221.21 105.539C221.547 105.916 222.033 106.361 222.518 106.78C222.721 106.968 223.098 107.238 223.408 107.454C223.719 107.67 224.137 107.953 224.272 107.993L225.418 108.587C226.902 109.329 228.291 109.922 229.694 110.489C232.459 111.622 235.211 112.607 237.962 113.564C243.479 115.412 248.969 117.098 254.607 118.514L257.278 111.298C252.22 108.708 247.067 106.253 242.036 103.731C239.514 102.477 237.005 101.222 234.604 99.9544C233.417 99.3204 232.23 98.6595 231.218 98.039L230.49 97.5804C230.288 97.4725 230.449 97.5265 230.463 97.5265C230.49 97.5265 230.557 97.6074 230.517 97.54C230.476 97.4725 230.436 97.4455 230.301 97.2702L230.139 97.0679L229.95 96.7846C228.858 95.193 227.617 92.7651 226.551 90.3911C225.486 87.9632 224.407 85.4409 223.422 82.8646C221.466 77.739 219.578 72.3841 217.824 67.2045C217.824 67.2045 214.587 66.4897 210.594 68.8906H210.581Z" fill="white"/>
<path d="M457.257 426.805H229.465L108.906 329.433L103.618 335.974H73.93L43.6891 196.734L73.3905 196.788L73.377 196.734L215.869 197.017L198.86 218.072L457.257 426.805Z" fill="#407BFF"/>
<path opacity="0.2" d="M457.257 426.805H259.153L120.64 314.919L103.618 335.974L73.377 196.734L215.869 197.017L198.86 218.072L457.257 426.805Z" fill="white"/>
<path d="M461.897 418.78H298.336C298.417 418.092 298.458 417.391 298.458 416.676C298.458 406.168 289.947 397.657 279.439 397.657C279.21 397.657 278.98 397.684 278.751 397.697C276.364 391.304 270.227 386.745 262.997 386.745C253.703 386.745 246.177 394.271 246.177 403.565C246.177 403.565 246.177 403.592 246.177 403.605C237.935 403.983 231.339 410.565 230.908 418.793H230.139C225.485 418.793 221.682 422.597 221.682 427.251C221.682 431.904 225.485 435.708 230.139 435.708H461.897C466.55 435.708 470.354 431.904 470.354 427.251C470.354 422.597 466.55 418.793 461.897 418.793V418.78Z" fill="#407BFF"/>
<path opacity="0.7" d="M461.897 418.78H298.336C298.417 418.092 298.458 417.391 298.458 416.676C298.458 406.168 289.947 397.657 279.439 397.657C279.21 397.657 278.98 397.684 278.751 397.697C276.364 391.304 270.227 386.745 262.997 386.745C253.703 386.745 246.177 394.271 246.177 403.565C246.177 403.565 246.177 403.592 246.177 403.605C237.935 403.983 231.339 410.565 230.908 418.793H230.139C225.485 418.793 221.682 422.597 221.682 427.251C221.682 431.904 225.485 435.708 230.139 435.708H461.897C466.55 435.708 470.354 431.904 470.354 427.251C470.354 422.597 466.55 418.793 461.897 418.793V418.78Z" fill="white"/>
</svg>
